<svg width="19" height="16" viewBox="0 0 19 16" fill="none" xmlns="http://www.w3.org/2000/svg">
<path fill-rule="evenodd" clip-rule="evenodd" d="M14.0623 8.2219C13.2415 8.2219 12.4711 8.3875 11.8231 8.6683C14.0911 9.3235 15.6967 10.8931 15.7399 12.7291C16.9207 12.5779 18.1951 12.1315 18.1951 10.9147C18.1951 9.4531 16.3015 8.2219 14.0623 8.2219ZM14.0407 7.1851H14.0551C15.5887 7.1851 16.8415 5.9323 16.8415 4.4059C16.8396 3.66749 16.5454 2.95986 16.0233 2.43772C15.5011 1.91558 14.7935 1.6214 14.0551 1.6195C13.7527 1.6195 13.4647 1.6699 13.1911 1.7563C13.7052 2.51735 13.9787 3.41544 13.9759 4.3339C13.9847 5.29881 13.6817 6.24076 13.1119 7.0195C13.4071 7.1275 13.7167 7.1851 14.0407 7.1851ZM6.97027 8.6611C6.32227 8.3875 5.55187 8.2219 4.73827 8.2219C2.49907 8.2219 0.605469 9.4531 0.605469 10.9147C0.605469 12.1315 1.87267 12.5707 3.05347 12.7291C3.08947 10.8931 4.69507 9.3235 6.97027 8.6611ZM4.73827 7.1851H4.75987C5.08387 7.1851 5.39347 7.1275 5.68867 7.0195C5.11997 6.23978 4.81478 5.29899 4.81747 4.3339C4.81747 3.3763 5.10547 2.4907 5.60227 1.7563C5.32867 1.6699 5.04067 1.6195 4.73827 1.6195C4.00052 1.62141 3.29363 1.91582 2.77264 2.43816C2.25164 2.96051 1.95907 3.66815 1.95907 4.4059C1.95907 5.9323 3.20467 7.1851 4.73827 7.1851Z" fill="#15193C"/>
<path fill-rule="evenodd" clip-rule="evenodd" d="M9.39653 9.40054C6.54461 9.40054 4.13477 10.9529 4.13477 12.7903C4.13477 15.1663 8.09477 15.1663 9.39653 15.1663C11.6559 15.1663 14.6597 14.9215 14.6597 12.8054C14.6597 10.9593 12.2492 9.40054 9.39653 9.40054ZM9.39653 7.83742H9.42101C9.87942 7.83719 10.3332 7.746 10.7562 7.56914C11.1791 7.39228 11.5627 7.13327 11.8848 6.8071C12.2089 6.48289 12.4653 6.0976 12.6393 5.67355C12.8133 5.24951 12.9015 4.79514 12.8986 4.33678C12.8977 3.4082 12.5284 2.51791 11.8719 1.86124C11.2153 1.20456 10.3251 0.835128 9.39653 0.833984C8.46813 0.835319 7.57818 1.20486 6.92191 1.86154C6.26564 2.51821 5.89665 3.40839 5.89589 4.33678C5.89703 5.26486 6.26621 6.1546 6.92246 6.81085C7.57871 7.4671 8.46845 7.83628 9.39653 7.83742Z" fill="#15193C"/>
</svg>
