<svg width="35" height="35" viewBox="0 0 35 35" fill="none" xmlns="http://www.w3.org/2000/svg">
<path d="M7.23353 23.5948C7.22141 23.5826 7.21038 23.5692 7.20056 23.5548C7.15098 23.4809 7.1414 23.3872 7.1751 23.3048L9.29455 18.1244C8.83018 17.8666 8.60363 17.586 8.60363 17.2706C8.60363 16.9552 8.83018 16.6746 9.29455 16.4167L7.17522 11.2362C7.15863 11.1957 7.15228 11.1517 7.15672 11.1081C7.16116 11.0645 7.17625 11.0227 7.20067 10.9863C7.2251 10.9499 7.2581 10.9201 7.29676 10.8995C7.33542 10.8789 7.37857 10.8681 7.42238 10.8681L9.40232 10.8681C9.44923 10.8681 9.49531 10.8805 9.53593 10.904C9.57655 10.9274 9.61027 10.9612 9.63372 11.0018L12.2362 15.5181C14.1775 15.1325 16.7276 14.8396 19.4787 14.6864L15.1175 3.46924C15.1017 3.42876 15.0961 3.38504 15.1011 3.34189C15.106 3.29873 15.1214 3.25744 15.146 3.22159C15.1705 3.18574 15.2034 3.15641 15.2418 3.13616C15.2803 3.1159 15.323 3.10533 15.3665 3.10535L17.9556 3.10535C18.0521 3.10535 18.1413 3.15747 18.1885 3.24172L19.8148 6.13913L21.842 6.13913C22.1575 6.13913 22.4553 6.25028 22.6809 6.45186C22.915 6.66108 23.0437 6.9417 23.0437 7.24183C23.0437 7.5422 22.9149 7.82269 22.681 8.03191C22.4554 8.23373 22.1576 8.34489 21.8422 8.34489L21.0531 8.34489L21.7793 9.6391L23.6983 9.6391C24.0137 9.6391 24.3116 9.75026 24.5372 9.95184C24.7711 10.1611 24.9 10.4417 24.9 10.7418C24.9 11.0422 24.7712 11.3227 24.5373 11.5319C24.3117 11.7337 24.0139 11.8449 23.6985 11.8449L23.0175 11.8449L24.5453 14.5669C24.5467 14.5693 24.5479 14.5717 24.5492 14.5741L24.5517 14.5791C27.5409 14.6271 30.0214 14.8928 31.7323 15.3488C32.5665 15.5711 33.214 15.8373 33.657 16.1398C34.1452 16.473 34.3927 16.8534 34.3927 17.2701C34.3927 17.6868 34.1451 18.0673 33.6566 18.4007C33.2131 18.7032 32.5653 18.9693 31.7306 19.1918C30.0197 19.6476 27.5399 19.9133 24.5517 19.9613L24.5493 19.9662C24.5481 19.9686 24.5466 19.971 24.5454 19.9734L23.0177 22.6953L23.6987 22.6953C24.0141 22.6953 24.3119 22.8065 24.5375 23.0083C24.7716 23.2177 24.9002 23.4983 24.9003 23.7985C24.9003 24.4065 24.3614 24.9013 23.6988 24.9013L21.7797 24.9013L21.0534 26.1954L21.8425 26.1954C22.1579 26.1954 22.4558 26.3066 22.6813 26.5084C22.9154 26.7175 23.044 26.9984 23.0441 27.2986C23.0441 27.9066 22.5052 28.4014 21.8427 28.4014L19.8154 28.4014L18.1892 31.299C18.1419 31.3831 18.0529 31.4353 17.9564 31.4353H15.3667C15.3233 31.4353 15.2805 31.4247 15.2421 31.4045C15.2037 31.3842 15.1708 31.3549 15.1462 31.3191C15.0965 31.2464 15.0859 31.1538 15.1177 31.0714L19.4791 19.8544C16.7276 19.7011 14.1772 19.4082 12.2365 19.0226L9.63396 23.5386C9.58632 23.6214 9.49808 23.6723 9.40256 23.6723L7.42262 23.6723C7.35074 23.6729 7.2831 23.6443 7.23353 23.5948Z" fill="#15193C"/>
</svg>
