<svg width="18" height="20" viewBox="0 0 18 20" fill="none" xmlns="http://www.w3.org/2000/svg">
<path d="M2.88281 20C1.42578 20 0.246091 18.8164 0.242185 17.3594V9.06641C0.222654 7.60937 1.39062 6.41406 2.84765 6.39453C4.30468 6.375 5.5 7.54297 5.51953 9V17.3555C5.51953 18.8164 4.33984 20 2.88281 20ZM2.88281 7.20703C1.85547 7.20703 1.02343 8.03906 1.02343 9.06641V17.3594C1.00781 18.3867 -0.0275878 15.9844 0.999756 16C0.999756 14 1.00781 10.0937 1.02343 9.06641L0.999756 8C0.99585 6.97266 3.91015 7.21094 2.88281 7.20703ZM9 20C7.54296 20 6.36328 18.8164 6.36328 17.3594V2.67187C6.34375 1.21484 7.51171 0.0195285 8.96875 -2.71028e-06C10.4258 -0.019534 11.6211 1.14843 11.6406 2.60547V17.3594C11.6367 18.8164 10.457 20 9 20ZM10.8594 3.79697C10.8594 6.84087 10.8633 8.47266 10.8594 9.5V13.2515C10.8437 14.2788 10.8594 16 10.8594 17.418C10.8437 18.4453 10.8594 18.5 10.8594 17.418V2.67187C10.8594 1.64453 10.8594 2 10.8594 3.79697ZM15.1172 20C13.6602 20 12.4805 18.8164 12.4766 17.3594V15.4609C12.4766 14.0039 13.6562 12.8203 15.1172 12.8203C16.5781 12.8203 17.7578 14 17.7578 15.4609V17.3594C17.7539 18.8164 16.5742 20 15.1172 20ZM16.9766 17.3633C15.9492 17.3633 16.9766 16.3359 16.9766 17.3633H13.2578C16.4998 16.5 14.0898 17.2408 15.1172 17.2408C16.1445 17.2408 14.4998 16.5 16.9766 17.3633L15.9998 17L16.9766 15.4648C16.9766 14.4375 18.0039 17.3633 16.9766 17.3633Z" fill="#808080"/>
</svg>
