<svg width="12" height="12" viewBox="0 0 12 12" fill="none" xmlns="http://www.w3.org/2000/svg">
<path d="M6.24937 11.0002H2.03937C1.45937 11.0002 0.984375 10.5352 0.984375 9.96517V2.54517C0.984375 1.23517 1.95938 0.640175 3.15438 1.22517L5.37437 2.31517C5.85437 2.55017 6.24937 3.17517 6.24937 3.70517V11.0002Z" fill="#15193C" stroke="#15193C" stroke-linecap="round" stroke-linejoin="round"/>
<path d="M10.985 7.53005V9.42005C10.985 10.5001 10.485 11.0001 9.405 11.0001H6.25V5.21005L6.485 5.26005L8.735 5.76505L9.75 5.99005C10.41 6.13505 10.95 6.47505 10.98 7.43505C10.985 7.46505 10.985 7.49505 10.985 7.53005Z" stroke="#15193C" stroke-linecap="round" stroke-linejoin="round"/>
<path d="M2.75 4.50006H4.485" stroke="white" stroke-linecap="round" stroke-linejoin="round"/>
<path d="M2.75 6.50006H4.485" stroke="white" stroke-linecap="round" stroke-linejoin="round"/>
<path d="M8.73437 5.76501V7.37501C8.73437 7.99501 8.22938 8.50001 7.60938 8.50001C6.98937 8.50001 6.48438 7.99501 6.48438 7.37501V5.26001L8.73437 5.76501Z" fill="#15193C" stroke="#15193C" stroke-linecap="round" stroke-linejoin="round"/>
<path d="M10.9794 7.43514C10.9494 8.02514 10.4594 8.50014 9.85938 8.50014C9.23937 8.50014 8.73438 7.99514 8.73438 7.37514V5.76514L9.74938 5.99014C10.4094 6.13514 10.9494 6.47514 10.9794 7.43514Z" fill="#15193C" stroke="#15193C" stroke-linecap="round" stroke-linejoin="round"/>
</svg>
