<svg width="11" height="13" viewBox="0 0 11 13" fill="none" xmlns="http://www.w3.org/2000/svg">
<path d="M7.95178 1.9609V1.05873C7.95178 0.821626 7.75515 0.625 7.51804 0.625C7.28094 0.625 7.08431 0.821626 7.08431 1.05873V1.9262H3.32529V1.05873C3.32529 0.821626 3.12866 0.625 2.89156 0.625C2.65445 0.625 2.45782 0.821626 2.45782 1.05873V1.9609C0.896385 2.10548 0.138798 3.03656 0.0231356 4.41872C0.0115694 4.58643 0.150364 4.72522 0.312291 4.72522H10.0973C10.265 4.72522 10.4038 4.58065 10.3865 4.41872C10.2708 3.03656 9.51322 2.10548 7.95178 1.9609Z" fill="#172B85"/>
<path d="M9.83128 5.59277H0.578311C0.26024 5.59277 0 5.85301 0 6.17108V9.73348C0 11.4684 0.867466 12.625 2.89155 12.625H7.51804C9.54213 12.625 10.4096 11.4684 10.4096 9.73348V6.17108C10.4096 5.85301 10.1494 5.59277 9.83128 5.59277ZM3.59131 10.4332C3.56239 10.4564 3.53348 10.4853 3.50456 10.5026C3.46987 10.5258 3.43517 10.5431 3.40047 10.5547C3.36577 10.572 3.33107 10.5836 3.29637 10.5894C3.25589 10.5952 3.22119 10.6009 3.18071 10.6009C3.10553 10.6009 3.03035 10.5836 2.96095 10.5547C2.88577 10.5258 2.82794 10.4853 2.77011 10.4332C2.66601 10.3234 2.6024 10.173 2.6024 10.0226C2.6024 9.87227 2.66601 9.72191 2.77011 9.61203C2.82794 9.55999 2.88577 9.5195 2.96095 9.49059C3.06505 9.44432 3.18071 9.43276 3.29637 9.45589C3.33107 9.46167 3.36577 9.47324 3.40047 9.49059C3.43517 9.50215 3.46987 9.5195 3.50456 9.54264C3.53348 9.56577 3.56239 9.5889 3.59131 9.61203C3.69541 9.72191 3.75902 9.87227 3.75902 10.0226C3.75902 10.173 3.69541 10.3234 3.59131 10.4332ZM3.59131 8.40915C3.48143 8.51324 3.33107 8.57686 3.18071 8.57686C3.03035 8.57686 2.87999 8.51324 2.77011 8.40915C2.66601 8.29927 2.6024 8.14891 2.6024 7.99855C2.6024 7.84819 2.66601 7.69782 2.77011 7.58795C2.93204 7.42602 3.18649 7.37397 3.40047 7.4665C3.47565 7.49542 3.53926 7.5359 3.59131 7.58795C3.69541 7.69782 3.75902 7.84819 3.75902 7.99855C3.75902 8.14891 3.69541 8.29927 3.59131 8.40915ZM5.6154 10.4332C5.50552 10.5373 5.35516 10.6009 5.2048 10.6009C5.05444 10.6009 4.90408 10.5373 4.7942 10.4332C4.6901 10.3234 4.62649 10.173 4.62649 10.0226C4.62649 9.87227 4.6901 9.72191 4.7942 9.61203C5.00817 9.39806 5.40142 9.39806 5.6154 9.61203C5.71949 9.72191 5.78311 9.87227 5.78311 10.0226C5.78311 10.173 5.71949 10.3234 5.6154 10.4332ZM5.6154 8.40915C5.58648 8.43228 5.55757 8.45541 5.52865 8.47854C5.49395 8.50168 5.45925 8.51903 5.42456 8.53059C5.38986 8.54794 5.35516 8.55951 5.32046 8.56529C5.27998 8.57107 5.24528 8.57686 5.2048 8.57686C5.05444 8.57686 4.90408 8.51324 4.7942 8.40915C4.6901 8.29927 4.62649 8.14891 4.62649 7.99855C4.62649 7.84819 4.6901 7.69782 4.7942 7.58795C4.84624 7.5359 4.90986 7.49542 4.98504 7.4665C5.19901 7.37397 5.45347 7.42602 5.6154 7.58795C5.71949 7.69782 5.78311 7.84819 5.78311 7.99855C5.78311 8.14891 5.71949 8.29927 5.6154 8.40915ZM7.63948 10.4332C7.52961 10.5373 7.37925 10.6009 7.22888 10.6009C7.07852 10.6009 6.92816 10.5373 6.81828 10.4332C6.71419 10.3234 6.65057 10.173 6.65057 10.0226C6.65057 9.87227 6.71419 9.72191 6.81828 9.61203C7.03226 9.39806 7.42551 9.39806 7.63948 9.61203C7.74358 9.72191 7.8072 9.87227 7.8072 10.0226C7.8072 10.173 7.74358 10.3234 7.63948 10.4332ZM7.63948 8.40915C7.61057 8.43228 7.58165 8.45541 7.55274 8.47854C7.51804 8.50168 7.48334 8.51903 7.44864 8.53059C7.41394 8.54794 7.37925 8.55951 7.34455 8.56529C7.30407 8.57107 7.26358 8.57686 7.22888 8.57686C7.07852 8.57686 6.92816 8.51324 6.81828 8.40915C6.71419 8.29927 6.65057 8.14891 6.65057 7.99855C6.65057 7.84819 6.71419 7.69782 6.81828 7.58795C6.87612 7.5359 6.93395 7.49542 7.00913 7.4665C7.11322 7.42024 7.22888 7.40867 7.34455 7.4318C7.37925 7.43759 7.41394 7.44915 7.44864 7.4665C7.48334 7.47807 7.51804 7.49542 7.55274 7.51855C7.58165 7.54168 7.61057 7.56481 7.63948 7.58795C7.74358 7.69782 7.8072 7.84819 7.8072 7.99855C7.8072 8.14891 7.74358 8.29927 7.63948 8.40915Z" fill="#172B85"/>
</svg>
