<svg width="14" height="12" viewBox="0 0 14 12" fill="none" xmlns="http://www.w3.org/2000/svg">
<path d="M2.13835 5.48098C1.89672 5.48165 1.66023 5.55073 1.45623 5.6802C1.25223 5.80968 1.08905 5.99427 0.985578 6.21261C0.882106 6.43096 0.842567 6.67414 0.871536 6.91402C0.900504 7.1539 0.996796 7.38067 1.14927 7.56811L4.3997 11.5499C4.51559 11.6938 4.66415 11.808 4.83303 11.8829C5.00191 11.9579 5.18624 11.9915 5.3707 11.9809C5.76523 11.9597 6.12143 11.7486 6.34852 11.4016L13.1005 0.527615C13.1016 0.525798 13.1027 0.524003 13.1039 0.522231C13.1673 0.424958 13.1467 0.232188 13.016 0.111088C12.98 0.0778329 12.9377 0.0522834 12.8915 0.0360134C12.8454 0.0197434 12.7963 0.0130973 12.7475 0.0164847C12.6987 0.019872 12.651 0.033221 12.6076 0.0557095C12.5641 0.0781979 12.5257 0.10935 12.4947 0.147246C12.4923 0.150226 12.4898 0.15316 12.4872 0.15605L5.67776 7.8497C5.65185 7.87897 5.62038 7.90281 5.58518 7.91982C5.54998 7.93683 5.51175 7.94668 5.47271 7.94879C5.43367 7.95091 5.3946 7.94524 5.35777 7.93212C5.32094 7.91901 5.28708 7.8987 5.25816 7.87239L2.99824 5.81585C2.76353 5.60069 2.45675 5.48122 2.13835 5.48098Z" fill="black"/>
</svg>
