<svg width="26" height="21" viewBox="0 0 26 21" fill="none" xmlns="http://www.w3.org/2000/svg">
<path fill-rule="evenodd" clip-rule="evenodd" d="M12.5312 20.1094C11.5469 20.1094 10.6562 19.1719 10.0469 17.4375C9.4375 15.7969 9.10938 13.6406 9.10938 11.3906C9.10938 9.14062 9.4375 6.98438 10.0469 5.39062C10.7031 3.65625 11.5469 2.71875 12.5312 2.71875C13.5156 2.71875 14.4062 3.65625 15.0156 5.39062C15.625 6.98438 15.9531 9.14062 15.9531 11.3906C15.9531 13.6875 15.625 15.8438 15.0156 17.4375C14.4062 19.1719 13.5156 20.1094 12.5312 20.1094ZM12.5312 3.375C11.2188 3.375 9.76562 6.65625 9.76562 11.3906C9.76562 16.125 11.2188 19.4531 12.5312 19.4531C13.8438 19.4531 15.2969 16.2188 15.2969 11.3906C15.2969 6.60938 13.8438 3.375 12.5312 3.375Z" fill="#1A1A1A" stroke="#1A1A1A" stroke-width="0.2"/>
<path fill-rule="evenodd" clip-rule="evenodd" d="M12.5312 14.8125C10.2812 14.8125 8.125 14.4844 6.53125 13.875C4.79688 13.2656 3.85938 12.375 3.85938 11.3906C3.85938 10.7344 4.375 10.0781 5.3125 9.51563C5.45312 9.42188 5.64062 9.46875 5.73438 9.65625C5.82812 9.79688 5.78125 9.98438 5.64062 10.0781C4.9375 10.5 4.51562 10.9688 4.51562 11.3906C4.51562 12.75 7.75 14.1563 12.5312 14.1563C14.2656 14.1563 15.7188 14.0156 16.8906 13.6875C17.0781 13.6406 17.2656 13.7813 17.3125 13.9219C17.3594 14.1094 17.2188 14.2969 17.0781 14.3438C15.8594 14.6719 14.3125 14.8125 12.5312 14.8125ZM17.4062 9.23438H17.3125C15.9062 8.8125 14.2656 8.625 12.5312 8.625C11.125 8.625 9.8125 8.8125 8.96875 8.95313C8.78125 9 8.64062 8.85938 8.59375 8.67188C8.54688 8.48438 8.6875 8.34375 8.875 8.29688C9.71875 8.15625 11.0781 7.96875 12.5312 7.96875C14.3125 7.96875 16 8.20313 17.5 8.57813C17.6875 8.625 17.7812 8.8125 17.7344 9C17.6875 9.14063 17.5469 9.23438 17.4062 9.23438ZM6.85938 7.5C6.71875 7.5 6.625 7.40625 6.57812 7.3125L4.89062 3.09375C4.79688 2.90625 4.89062 2.71875 5.03125 2.625C5.21875 2.57812 5.40625 2.67187 5.5 2.8125L7.1875 7.03125C7.23438 7.21875 7.14062 7.40625 7 7.45313C6.95312 7.5 6.90625 7.5 6.85938 7.5Z" fill="#1A1A1A" stroke="#1A1A1A" stroke-width="0.2"/>
<path fill-rule="evenodd" clip-rule="evenodd" d="M3.48403 7.5C3.43715 7.5 3.39028 7.5 3.3434 7.45312C3.20278 7.40625 3.10903 7.21875 3.20278 7.03125L4.89028 2.8125C4.93715 2.67187 5.12465 2.57812 5.31215 2.625C5.45278 2.71875 5.54653 2.90625 5.49965 3.09375L3.81215 7.3125C3.7184 7.40625 3.62465 7.5 3.48403 7.5Z" fill="#1A1A1A" stroke="#1A1A1A" stroke-width="0.2"/>
<path fill-rule="evenodd" clip-rule="evenodd" d="M6.25 5.95312H4.09375C3.90625 5.95312 3.76562 5.8125 3.76562 5.625C3.76562 5.4375 3.90625 5.29688 4.09375 5.29688H6.25C6.4375 5.29688 6.57812 5.4375 6.57812 5.625C6.57812 5.8125 6.4375 5.95312 6.25 5.95312Z" fill="#1A1A1A" stroke="#1A1A1A" stroke-width="0.2"/>
<path fill-rule="evenodd" clip-rule="evenodd" d="M5.96875 10.5C5.875 10.5 5.82812 10.4531 5.78125 10.4062L4.28125 9.23438H1.9375C1.42188 9.23438 1 8.8125 1 8.29688V1.82812C1 1.3125 1.42188 0.890625 1.9375 0.890625H8.40625C8.92188 0.890625 9.34375 1.3125 9.34375 1.82812V8.29688C9.34375 8.8125 8.92188 9.23438 8.40625 9.23438H6.29688V10.1719C6.29688 10.3125 6.20312 10.4062 6.10938 10.4531C6.0625 10.5 6.01562 10.5 5.96875 10.5ZM1.9375 1.54688C1.79688 1.54688 1.65625 1.6875 1.65625 1.82812V8.29688C1.65625 8.4375 1.79688 8.57812 1.9375 8.57812H4.375C4.46875 8.57812 4.51562 8.57812 4.5625 8.67188L5.64062 9.51562V8.90625C5.64062 8.71875 5.78125 8.57812 5.96875 8.57812H8.40625C8.54688 8.57812 8.6875 8.4375 8.6875 8.29688V1.82812C8.6875 1.6875 8.54688 1.54688 8.40625 1.54688H1.9375ZM20.0312 18.1406C19.9844 18.1406 19.9375 18.1406 19.8906 18.0938C19.7969 18.0469 19.7031 17.9531 19.7031 17.8125V16.875H17.5938C17.0781 16.875 16.6562 16.4531 16.6562 15.9375V9.46875C16.6562 8.95312 17.0781 8.53125 17.5938 8.53125H24.0625C24.5781 8.53125 25 8.95312 25 9.46875V15.9375C25 16.4531 24.5781 16.875 24.0625 16.875H21.7188L20.2188 18.0469C20.1719 18.0938 20.125 18.1406 20.0312 18.1406ZM17.5938 9.1875C17.4531 9.1875 17.3125 9.32812 17.3125 9.46875V15.9375C17.3125 16.0781 17.4531 16.2188 17.5938 16.2188H20.0312C20.2188 16.2188 20.3594 16.3594 20.3594 16.5469V17.1094L21.4375 16.2656C21.4844 16.2188 21.5312 16.2188 21.625 16.2188H24.0625C24.2031 16.2188 24.3438 16.0781 24.3438 15.9375V9.46875C24.3438 9.32812 24.2031 9.1875 24.0625 9.1875H17.5938Z" fill="#1A1A1A" stroke="#1A1A1A" stroke-width="0.2"/>
<path fill-rule="evenodd" clip-rule="evenodd" d="M22.75 11.8594H18.9062C18.7188 11.8594 18.5781 11.7188 18.5781 11.5312C18.5781 11.3438 18.7188 11.2031 18.9062 11.2031H22.75C22.9375 11.2031 23.0781 11.3438 23.0781 11.5312C23.0781 11.7188 22.9375 11.8594 22.75 11.8594Z" fill="#1A1A1A" stroke="#1A1A1A" stroke-width="0.2"/>
<path fill-rule="evenodd" clip-rule="evenodd" d="M19.4688 15.0937C19.3281 15.0937 19.2344 15.0469 19.1875 14.9062C19.0938 14.7656 19.1406 14.5781 19.3281 14.4844C21.1562 13.4531 21.5781 11.4844 21.5781 11.4844C21.625 11.2969 21.7656 11.1562 21.9531 11.2031C22.1406 11.25 22.2344 11.3906 22.2344 11.5781C22.1875 11.6719 21.7656 13.875 19.6094 15.0469C19.5625 15.0937 19.5156 15.0937 19.4688 15.0937Z" fill="#1A1A1A" stroke="#1A1A1A" stroke-width="0.2"/>
<path fill-rule="evenodd" clip-rule="evenodd" d="M22.1875 15.0938C22.1406 15.0938 22.0938 15.0938 22.0469 15.0469C19.8906 13.875 19.4219 11.6719 19.4219 11.5781C19.375 11.4375 19.5156 11.25 19.7031 11.2031C19.8438 11.1562 20.0312 11.2969 20.0781 11.4844C20.125 11.6719 20.5 13.4531 22.3281 14.4844C22.5156 14.5781 22.5625 14.7656 22.4688 14.9062C22.4219 15.0469 22.2812 15.0938 22.1875 15.0938ZM12.5312 20.1094C7.75 20.1094 3.85938 16.2188 3.85938 11.3906C3.85938 10.6875 3.95312 9.89062 4.1875 8.95312C4.23438 8.76562 4.42188 8.67188 4.60938 8.71875C4.75 8.76562 4.89062 8.95312 4.84375 9.14062C4.60938 9.98438 4.51562 10.7344 4.51562 11.3906C4.51562 15.8438 8.125 19.4531 12.5312 19.4531C15.0625 19.4531 17.3594 18.3281 18.8594 16.3594C19 16.2188 19.1875 16.1719 19.3281 16.2656C19.4688 16.4062 19.5156 16.5938 19.375 16.7344C17.7812 18.8906 15.25 20.1094 12.5312 20.1094ZM20.5 9.1875C20.3594 9.1875 20.2188 9.09375 20.1719 8.95312C19.1406 5.625 16.0469 3.375 12.5312 3.375C11.3594 3.375 10.2344 3.65625 9.15625 4.125C8.96875 4.21875 8.78125 4.125 8.73438 3.98438C8.64062 3.84375 8.6875 3.60938 8.875 3.5625C10.0469 3 11.2656 2.71875 12.5312 2.71875C16.3281 2.71875 19.6562 5.15625 20.8281 8.76562C20.875 8.95312 20.7812 9.14062 20.5938 9.1875H20.5ZM20.8281 11.8594C20.6406 11.8594 20.5 11.7188 20.5 11.5312V10.4531C20.5 10.2656 20.6406 10.125 20.8281 10.125C21.0156 10.125 21.1562 10.2656 21.1562 10.4531V11.5312C21.1562 11.7188 21.0156 11.8594 20.8281 11.8594Z" fill="#1A1A1A" stroke="#1A1A1A" stroke-width="0.2"/>
</svg>
