<svg width="18" height="18" viewBox="0 0 18 18" fill="none" xmlns="http://www.w3.org/2000/svg">
<path d="M6.93745 6.00005H1.31245C0.588727 6.00005 0 5.41132 0 4.68745V1.31245C0 0.588727 0.588727 0 1.31245 0H6.93745C7.66132 0 8.25005 0.588727 8.25005 1.31245V4.68745C8.25005 5.41132 7.66132 6.00005 6.93745 6.00005ZM1.31245 1.125C1.26275 1.12504 1.21509 1.1448 1.17994 1.17994C1.1448 1.21509 1.12504 1.26275 1.125 1.31245V4.68745C1.12501 4.73718 1.14476 4.78487 1.17991 4.82004C1.21505 4.85522 1.26273 4.875 1.31245 4.87505H6.93745C6.9872 4.87503 7.0349 4.85526 7.07008 4.82008C7.10526 4.7849 7.12503 4.7372 7.12505 4.68745V1.31245C7.125 1.26273 7.10522 1.21505 7.07004 1.17991C7.03487 1.14476 6.98718 1.12501 6.93745 1.125H1.31245ZM6.93745 18H1.31245C0.588727 18 0 17.4113 0 16.6875V8.81255C0 8.08868 0.588727 7.49995 1.31245 7.49995H6.93745C7.66132 7.49995 8.25005 8.08868 8.25005 8.81255V16.6875C8.25005 17.4113 7.66132 18 6.93745 18ZM1.31245 8.62495C1.26273 8.625 1.21505 8.64478 1.17991 8.67996C1.14476 8.71513 1.12501 8.76282 1.125 8.81255V16.6875C1.12504 16.7373 1.1448 16.7849 1.17994 16.8201C1.21509 16.8552 1.26275 16.875 1.31245 16.875H6.93745C6.98718 16.875 7.03487 16.8552 7.07004 16.8201C7.10522 16.7849 7.125 16.7373 7.12505 16.6875V8.81255C7.12503 8.7628 7.10526 8.71509 7.07008 8.67992C7.0349 8.64474 6.9872 8.62497 6.93745 8.62495H1.31245ZM16.6875 18H11.0625C10.3387 18 9.74995 17.4113 9.74995 16.6875V13.3125C9.74995 12.5887 10.3387 12 11.0625 12H16.6875C17.4113 12 18 12.5887 18 13.3125V16.6875C18 17.4113 17.4113 18 16.6875 18ZM11.0625 13.125C11.0128 13.125 10.9651 13.1447 10.9299 13.1799C10.8947 13.2151 10.875 13.2628 10.875 13.3125V16.6875C10.875 16.7373 10.8948 16.7849 10.93 16.8201C10.9651 16.8552 11.0128 16.875 11.0625 16.875H16.6875C16.7373 16.875 16.7849 16.8552 16.8201 16.8201C16.8552 16.7849 16.875 16.7373 16.875 16.6875V13.3125C16.875 13.2628 16.8552 13.2151 16.8201 13.18C16.7849 13.1448 16.7373 13.125 16.6875 13.125H11.0625ZM16.6875 10.5H11.0625C10.3387 10.5 9.74995 9.91132 9.74995 9.18745V1.31245C9.74995 0.588727 10.3387 0 11.0625 0H16.6875C17.4113 0 18 0.588727 18 1.31245V9.18745C18 9.91132 17.4113 10.5 16.6875 10.5ZM11.0625 1.125C11.0128 1.12501 10.9651 1.14476 10.93 1.17991C10.8948 1.21505 10.875 1.26273 10.875 1.31245V9.18745C10.875 9.2372 10.8947 9.2849 10.9299 9.32008C10.9651 9.35526 11.0128 9.37503 11.0625 9.37505H16.6875C16.7373 9.375 16.7849 9.35522 16.8201 9.32004C16.8552 9.28487 16.875 9.23718 16.875 9.18745V1.31245C16.875 1.26275 16.8552 1.21509 16.8201 1.17994C16.7849 1.1448 16.7373 1.12504 16.6875 1.125H11.0625Z" fill="black"/>
</svg>
