<svg width="36" height="36" viewBox="0 0 36 36" fill="none" xmlns="http://www.w3.org/2000/svg">
<g clip-path="url(#clip0_202_748)">
<rect x="2" y="16" width="14" height="18" fill="#172B85"/>
<rect x="20" y="2" width="14" height="18" fill="#172B85"/>
<rect x="2" y="2" width="14" height="8" fill="#172B85"/>
<rect x="20" y="26" width="14" height="8" fill="#172B85"/>
<path d="M13.8749 12.0001H2.62491C1.17745 12.0001 0 10.8226 0 9.37491V2.62491C0 1.17745 1.17745 0 2.62491 0H13.8749C15.3226 0 16.5001 1.17745 16.5001 2.62491V9.37491C16.5001 10.8226 15.3226 12.0001 13.8749 12.0001ZM2.62491 2.25C2.5255 2.25007 2.43018 2.2896 2.35989 2.35989C2.2896 2.43018 2.25007 2.5255 2.25 2.62491V9.37491C2.25002 9.47436 2.28951 9.56973 2.35981 9.64008C2.43011 9.71043 2.52545 9.75 2.62491 9.75009H13.8749C13.9744 9.75006 14.0698 9.71052 14.1402 9.64016C14.2105 9.56981 14.2501 9.4744 14.2501 9.37491V2.62491C14.25 2.52545 14.2104 2.43011 14.1401 2.35981C14.0697 2.28951 13.9744 2.25002 13.8749 2.25H2.62491ZM13.8749 36H2.62491C1.17745 36 0 34.8225 0 33.3751V17.6251C0 16.1774 1.17745 14.9999 2.62491 14.9999H13.8749C15.3226 14.9999 16.5001 16.1774 16.5001 17.6251V33.3751C16.5001 34.8225 15.3226 36 13.8749 36ZM2.62491 17.2499C2.52545 17.25 2.43011 17.2896 2.35981 17.3599C2.28951 17.4303 2.25002 17.5256 2.25 17.6251V33.3751C2.25007 33.4745 2.2896 33.5698 2.35989 33.6401C2.43018 33.7104 2.5255 33.7499 2.62491 33.75H13.8749C13.9744 33.75 14.0697 33.7105 14.1401 33.6402C14.2104 33.5699 14.25 33.4745 14.2501 33.3751V17.6251C14.2501 17.5256 14.2105 17.4302 14.1402 17.3598C14.0698 17.2895 13.9744 17.2499 13.8749 17.2499H2.62491ZM33.3751 36H22.1251C20.6774 36 19.4999 34.8225 19.4999 33.3751V26.6251C19.4999 25.1774 20.6774 23.9999 22.1251 23.9999H33.3751C34.8225 23.9999 36 25.1774 36 26.6251V33.3751C36 34.8225 34.8225 36 33.3751 36ZM22.1251 26.2499C22.0256 26.2499 21.9302 26.2895 21.8598 26.3598C21.7895 26.4302 21.7499 26.5256 21.7499 26.6251V33.3751C21.75 33.4745 21.7896 33.5699 21.8599 33.6402C21.9303 33.7105 22.0256 33.75 22.1251 33.75H33.3751C33.4745 33.7499 33.5698 33.7104 33.6401 33.6401C33.7104 33.5698 33.7499 33.4745 33.75 33.3751V26.6251C33.75 26.5256 33.7105 26.4303 33.6402 26.3599C33.5699 26.2896 33.4745 26.25 33.3751 26.2499H22.1251ZM33.3751 21.0001H22.1251C20.6774 21.0001 19.4999 19.8226 19.4999 18.3749V2.62491C19.4999 1.17745 20.6774 0 22.1251 0H33.3751C34.8225 0 36 1.17745 36 2.62491V18.3749C36 19.8226 34.8225 21.0001 33.3751 21.0001ZM22.1251 2.25C22.0256 2.25002 21.9303 2.28951 21.8599 2.35981C21.7896 2.43011 21.75 2.52545 21.7499 2.62491V18.3749C21.7499 18.4744 21.7895 18.5698 21.8598 18.6402C21.9302 18.7105 22.0256 18.7501 22.1251 18.7501H33.3751C33.4745 18.75 33.5699 18.7104 33.6402 18.6401C33.7105 18.5697 33.75 18.4744 33.75 18.3749V2.62491C33.7499 2.5255 33.7104 2.43018 33.6401 2.35989C33.5698 2.2896 33.4745 2.25007 33.3751 2.25H22.1251Z" fill="#172B85"/>
</g>
<defs>
<clipPath id="clip0_202_748">
<rect width="36" height="36" fill="white"/>
</clipPath>
</defs>
</svg>
