<svg width="18" height="19" viewBox="0 0 18 19" fill="none" xmlns="http://www.w3.org/2000/svg">
<path d="M8.25 2H6.75C3 2 1.5 3.5 1.5 7.25V11.75C1.5 15.5 3 17 6.75 17H11.25C15 17 16.5 15.5 16.5 11.75V10.25" stroke="black" stroke-linecap="round" stroke-linejoin="round"/>
<path d="M12.0299 2.76592L6.11991 8.67592C5.89491 8.90092 5.66991 9.34342 5.62491 9.66592L5.30241 11.9234C5.18241 12.7409 5.75991 13.3109 6.57741 13.1984L8.83491 12.8759C9.14991 12.8309 9.59241 12.6059 9.82491 12.3809L15.7349 6.47092C16.7549 5.45092 17.2349 4.26592 15.7349 2.76592C14.2349 1.26592 13.0499 1.74592 12.0299 2.76592Z" stroke="black" stroke-miterlimit="10" stroke-linecap="round" stroke-linejoin="round"/>
<path d="M11.1826 3.61328C11.6851 5.40578 13.0876 6.80828 14.8876 7.31828" stroke="black" stroke-miterlimit="10" stroke-linecap="round" stroke-linejoin="round"/>
</svg>
