<svg width="14" height="14" viewBox="0 0 14 14" fill="none" xmlns="http://www.w3.org/2000/svg">
<g clip-path="url(#clip0_234_1854)">
<path d="M1.02083 0C0.9048 0 0.79352 0.0460936 0.711473 0.128141C0.629426 0.210188 0.583332 0.321468 0.583332 0.4375V13.5625C0.583332 13.6785 0.629426 13.7898 0.711473 13.8719C0.79352 13.9539 0.9048 14 1.02083 14C1.13686 14 1.24814 13.9539 1.33019 13.8719C1.41224 13.7898 1.45833 13.6785 1.45833 13.5625V7.75717C1.93317 7.38967 3.68842 6.25683 6.43592 7.08808C10.2025 8.232 13.2172 3.787 13.3432 3.59742C13.3925 3.52326 13.4181 3.4358 13.4164 3.34674C13.4147 3.25767 13.3858 3.17125 13.3337 3.09901C13.2816 3.02678 13.2086 2.97218 13.1246 2.94251C13.0406 2.91285 12.9496 2.90953 12.8637 2.933C12.8333 2.94233 9.82158 3.73333 7.10442 1.82992C5.02892 0.375083 2.53283 0.501083 1.45833 0.643417V0.4375C1.45833 0.321468 1.41224 0.210188 1.33019 0.128141C1.24814 0.0460936 1.13686 0 1.02083 0ZM6.60333 2.54567C8.5925 3.93925 10.6867 4.05475 11.9461 3.955C10.9381 5.09892 8.91217 6.92417 6.68908 6.25042C4.193 5.49325 2.39575 6.16 1.45833 6.70542V1.52775C2.33275 1.40292 4.71567 1.22442 6.60333 2.54567Z" fill="black"/>
</g>
<defs>
<clipPath id="clip0_234_1854">
<rect width="14" height="14" fill="white"/>
</clipPath>
</defs>
</svg>
