<svg width="8" height="12" viewBox="0 0 8 12" fill="none" xmlns="http://www.w3.org/2000/svg">
<path fill-rule="evenodd" clip-rule="evenodd" d="M5.07514 11.8594C5.67184 10.977 5.72682 10.0239 5.2401 9.00014C5.10474 9.54938 4.85715 9.8827 4.49729 10.0002C4.83146 9.04584 4.55223 8.01478 3.65956 6.90701C3.6403 8.05113 3.36535 8.88457 2.83471 9.40734C2.10369 10.1268 2.11229 10.9388 2.86049 11.8432C-0.245404 10.1904 -0.683591 7.97355 1.54588 5.19286C1.68416 5.86462 2.01924 6.27705 2.55118 6.43015C1.97136 3.96966 2.58142 1.87315 4.38132 0.140625C4.39239 3.98548 5.57141 4.32722 7.0621 6.04348C8.6716 8.10307 7.72576 10.4799 5.07514 11.8594Z" fill="white"/>
</svg>
