<svg width="15" height="15" viewBox="0 0 15 15" fill="none" xmlns="http://www.w3.org/2000/svg">
<g clip-path="url(#clip0_234_1605)">
<path d="M7.49191 0.5C7.24096 0.5 6.99019 0.513491 6.74067 0.540384C6.51197 0.563744 6.28608 0.602055 6.06322 0.648542C6.01999 0.657596 5.97685 0.667096 5.93381 0.677041C4.62075 0.975996 3.4218 1.64734 2.4807 2.61057C2.39273 2.70075 2.30705 2.79313 2.22373 2.88762C-0.318445 5.80613 -0.0133604 10.2329 2.90518 12.7751C5.6993 15.2089 9.90517 15.047 12.5039 12.4055C12.5919 12.3154 12.6776 12.223 12.7608 12.1285C13.8828 10.8508 14.501 9.20835 14.5 7.50804C14.5 3.63757 11.3624 0.499971 7.49191 0.5ZM2.79209 2.96097C2.829 2.92266 2.86731 2.88599 2.90492 2.84884C2.94837 2.80609 2.99159 2.76311 3.03597 2.72176C3.07498 2.68532 3.11516 2.65028 3.15511 2.61477C3.20019 2.57483 3.24504 2.53488 3.2913 2.49634C3.33194 2.462 3.37376 2.42906 3.41534 2.39589C3.46206 2.35851 3.50878 2.32114 3.5569 2.28516C3.59941 2.25326 3.64248 2.22211 3.68608 2.19172C3.73444 2.15715 3.78303 2.12164 3.83232 2.0894C3.87649 2.05963 3.92103 2.03043 3.96594 2.0018C4.01567 1.96974 4.06598 1.93859 4.11685 1.90836C4.21348 1.85067 4.31139 1.79514 4.41049 1.7418C4.45721 1.71689 4.50393 1.69251 4.55065 1.66868C4.60395 1.64189 4.65761 1.61581 4.7116 1.59043C4.75832 1.56823 4.80691 1.54604 4.85503 1.52502C4.90993 1.50166 4.96553 1.4783 5.02112 1.45494C5.06948 1.43508 5.1176 1.41569 5.16642 1.397C5.22296 1.37551 5.28019 1.35542 5.33742 1.33533C5.3863 1.31807 5.43536 1.30132 5.48459 1.28511C5.54276 1.26642 5.60139 1.24913 5.66026 1.23208C5.70955 1.21783 5.75837 1.20311 5.8079 1.1898C5.82682 1.18489 5.84574 1.18092 5.86466 1.17602C5.17319 1.84743 4.66006 2.68068 4.37171 3.60034C3.81725 3.45411 3.2805 3.24754 2.77106 2.98433C2.77877 2.97616 2.78531 2.96798 2.79209 2.96097ZM2.45617 3.33707C3.01731 3.64112 3.61236 3.87791 4.22898 4.04255C3.92669 5.09364 3.76803 6.1808 3.75733 7.27444H0.95644C1.00733 5.83228 1.53473 4.44764 2.45617 3.33707ZM2.45617 11.679C1.53479 10.5684 1.00739 9.1838 0.95644 7.74165H3.75733C3.76802 8.83529 3.92667 9.92245 4.22898 10.9735C3.61237 11.1382 3.01733 11.375 2.45617 11.679ZM5.80649 13.8272C5.75931 13.8153 5.71048 13.7999 5.66189 13.7856C5.60279 13.7684 5.54346 13.7511 5.48506 13.7321C5.43577 13.7163 5.38718 13.6992 5.33859 13.6822C5.28102 13.6625 5.22378 13.6418 5.16689 13.6203C5.11846 13.6017 5.07026 13.5825 5.02229 13.5628C4.96646 13.5394 4.91063 13.5161 4.85527 13.4927C4.80757 13.4717 4.76014 13.45 4.713 13.4278C4.65857 13.4021 4.60438 13.3759 4.54948 13.3488C4.50276 13.3254 4.45604 13.3021 4.40932 13.2766C4.35652 13.2484 4.3042 13.2194 4.25187 13.1895C4.20515 13.1636 4.16077 13.1369 4.11568 13.1098C4.06442 13.0789 4.01364 13.0472 3.96337 13.0148C3.91899 12.9865 3.8746 12.9578 3.83092 12.9283C3.78115 12.8944 3.73185 12.8599 3.68305 12.8246C3.6403 12.794 3.59755 12.7634 3.5555 12.7312C3.50729 12.6946 3.45963 12.6573 3.41254 12.6193C3.37119 12.5863 3.33008 12.5536 3.28966 12.5198C3.24294 12.481 3.19786 12.4406 3.15254 12.4004C3.11282 12.3651 3.07288 12.3303 3.0341 12.2943C2.98948 12.2527 2.94627 12.2095 2.90282 12.1668C2.86521 12.1296 2.82689 12.093 2.78999 12.0549C2.78321 12.0476 2.77667 12.0402 2.7699 12.0332C3.2793 11.7698 3.81606 11.5632 4.37054 11.4169C4.65895 12.3366 5.17207 13.1698 5.86349 13.8412C5.84457 13.8363 5.82542 13.8324 5.80649 13.8272ZM7.25833 14.0305C6.25875 13.8884 5.38251 12.8452 4.8312 11.3046C5.62826 11.1261 6.44162 11.0303 7.25833 11.0189V14.0305ZM7.25833 10.5517C6.39197 10.563 5.52924 10.6659 4.6845 10.8586C4.39118 9.84515 4.23646 8.79663 4.22454 7.74165H7.25833V10.5517ZM7.25833 7.27444H4.22454C4.23643 6.21945 4.39115 5.17094 4.6845 4.15748C5.52925 4.35013 6.39198 4.45301 7.25833 4.46444V7.27444ZM7.25833 3.99723C6.44161 3.98584 5.62825 3.8901 4.8312 3.71154C5.38251 2.17093 6.25875 1.12766 7.25833 0.98563V3.99723ZM12.5277 3.33707C13.4491 4.44768 13.9765 5.83229 14.0274 7.27444H11.2265C11.2159 6.1808 11.0572 5.09364 10.7549 4.04255C11.3715 3.87784 11.9665 3.64105 12.5277 3.33707ZM9.17551 1.18863C9.22457 1.20078 9.27339 1.2162 9.32198 1.23045C9.38108 1.24773 9.44041 1.26502 9.49882 1.28394C9.54811 1.29983 9.59669 1.31688 9.64528 1.33393C9.70275 1.35379 9.76022 1.37411 9.81698 1.39584C9.86557 1.41429 9.91346 1.43368 9.96158 1.4533C10.0174 1.47666 10.0732 1.50002 10.1286 1.52338C10.1763 1.54441 10.2237 1.56604 10.2709 1.58832C10.3253 1.61402 10.3795 1.64018 10.4344 1.66728C10.4811 1.69064 10.5278 1.714 10.5746 1.73947C10.6273 1.76773 10.6797 1.7967 10.732 1.8266C10.7787 1.85253 10.8231 1.87916 10.8682 1.90626C10.9195 1.93715 10.9702 1.96885 11.0205 2.00133C11.0649 2.0296 11.1093 2.05833 11.153 2.08777C11.2026 2.12157 11.2519 2.15607 11.3006 2.19125C11.3437 2.22177 11.3864 2.25292 11.4286 2.28469C11.4767 2.3209 11.5239 2.35851 11.5713 2.39636C11.6125 2.42906 11.6538 2.46176 11.6942 2.49587C11.7409 2.53465 11.786 2.57506 11.8313 2.61524C11.871 2.65051 11.911 2.68532 11.9498 2.7213C11.9944 2.76288 12.0376 2.80609 12.0811 2.84884C12.1187 2.88599 12.157 2.92266 12.1939 2.96074C12.2007 2.96798 12.2072 2.97546 12.214 2.98246C11.7046 3.2458 11.1678 3.45245 10.6133 3.59871C10.3244 2.67896 9.81059 1.84579 9.11851 1.17461C9.13743 1.17952 9.15659 1.18349 9.17551 1.18863ZM7.72554 0.98563C8.72512 1.12766 9.60137 2.17093 10.1527 3.71154C9.35561 3.89001 8.54226 3.98575 7.72554 3.99723V0.98563ZM7.72554 4.46444C8.5919 4.45304 9.45463 4.35016 10.2994 4.15748C10.5927 5.17094 10.7474 6.21946 10.7593 7.27444H7.72554V4.46444ZM7.72554 7.74165H10.7593C10.7474 8.79663 10.5927 9.84515 10.2994 10.8586C9.45463 10.666 8.5919 10.5631 7.72554 10.5517V7.74165ZM7.72554 14.0305V11.0189C8.54227 11.0302 9.35562 11.126 10.1527 11.3046C9.60137 12.8452 8.72512 13.8884 7.72554 14.0305ZM12.1918 12.0551C12.1549 12.0932 12.1168 12.1299 12.0792 12.167C12.0357 12.2098 11.9923 12.253 11.9477 12.2946C11.9089 12.3308 11.8689 12.3646 11.8292 12.4008C11.7839 12.441 11.7388 12.4812 11.6926 12.52C11.6517 12.5541 11.6101 12.587 11.5685 12.6202C11.5218 12.6576 11.4751 12.695 11.427 12.7309C11.3845 12.7628 11.3414 12.794 11.2978 12.8244C11.2494 12.8589 11.2008 12.8945 11.1516 12.9267C11.1074 12.9565 11.0629 12.9856 11.0179 13.0141C10.9682 13.0462 10.9178 13.0773 10.8668 13.1075C10.8201 13.1348 10.7755 13.1615 10.7294 13.1879C10.632 13.2433 10.5332 13.2965 10.4332 13.3472C10.3799 13.374 10.3263 13.4 10.2723 13.4254C10.2256 13.4476 10.177 13.4698 10.1288 13.4908C10.0739 13.5142 10.0183 13.5376 9.96275 13.5609C9.91439 13.5805 9.86627 13.6002 9.81768 13.6186C9.76068 13.6403 9.70345 13.6607 9.64598 13.6805C9.59738 13.6978 9.54855 13.7145 9.49952 13.7305C9.44112 13.7494 9.38272 13.7667 9.32315 13.7838C9.27432 13.7983 9.22527 13.8127 9.17598 13.8261C9.15705 13.831 9.13813 13.8349 9.11921 13.8398C9.81068 13.1684 10.3238 12.3352 10.6122 11.4155C11.1666 11.5617 11.7034 11.7683 12.2128 12.0315C12.2051 12.0399 12.1986 12.0481 12.1918 12.0551ZM12.5277 11.679C11.9666 11.375 11.3715 11.1382 10.7549 10.9735C11.0572 9.92245 11.2158 8.83529 11.2265 7.74165H14.0274C13.9766 9.18381 13.4492 10.5684 12.5277 11.679Z" fill="black"/>
</g>
<defs>
<clipPath id="clip0_234_1605">
<rect width="14" height="14" fill="white" transform="translate(0.5 0.5)"/>
</clipPath>
</defs>
</svg>
