<svg width="18" height="18" viewBox="0 0 18 18" fill="none" xmlns="http://www.w3.org/2000/svg">
<path d="M15.8382 3.6445L9.0731 0.039649C9.02377 0.0132959 8.96864 -0.000329999 8.91271 6.06907e-06C8.85678 0.000342137 8.80182 0.0146296 8.7528 0.0415736L2.1748 3.64633C2.12185 3.67538 2.07769 3.71813 2.04694 3.7701C2.01619 3.82207 1.99997 3.88136 2 3.94175V8.65064C2.00395 12.5215 4.29728 16.0233 7.84387 17.574L8.75689 17.9719C8.79915 17.9903 8.84475 17.9999 8.89085 17.9999C8.93695 18 8.98258 17.9906 9.02489 17.9723L10.0537 17.528C13.6661 16.0109 16.0162 12.4752 16.0166 8.55725V3.94185C16.0166 3.88077 16 3.82084 15.9686 3.76847C15.9372 3.7161 15.8921 3.67324 15.8382 3.6445ZM15.343 8.5573C15.3422 12.2052 13.1536 15.4967 9.79006 16.9084L9.7878 16.9095L8.89185 17.2963L8.11336 16.9566C4.81206 15.5132 2.67721 12.2539 2.67341 8.65074V4.14124L8.91687 0.719462L15.3429 4.14369L15.343 8.5573Z" fill="black"/>
<path d="M6.43193 8.4323C6.40321 8.39865 6.36814 8.37099 6.32872 8.3509C6.2893 8.33081 6.24631 8.31868 6.20221 8.31521C6.1581 8.31174 6.11375 8.31699 6.07167 8.33067C6.0296 8.34434 5.99063 8.36617 5.95699 8.39491C5.92335 8.42362 5.89569 8.45867 5.8756 8.49807C5.85551 8.53747 5.84338 8.58045 5.83991 8.62454C5.83643 8.66863 5.84169 8.71297 5.85536 8.75503C5.86904 8.79709 5.89087 8.83604 5.91961 8.86966L7.6987 10.953C7.75577 11.0199 7.83673 11.0618 7.92428 11.0698C8.01183 11.0778 8.09903 11.0512 8.16724 10.9957L12.3108 7.62469C12.3801 7.56831 12.4241 7.48672 12.4333 7.39786C12.4424 7.309 12.4159 7.22015 12.3595 7.15086C12.3031 7.08157 12.2215 7.03751 12.1326 7.02838C12.0438 7.01925 11.9549 7.04579 11.8856 7.10216L7.99735 10.2654L6.43193 8.4323Z" fill="black"/>
</svg>
