<svg width="16" height="16" viewBox="0 0 16 16" fill="none" xmlns="http://www.w3.org/2000/svg">
<path d="M8.00001 0.5C12.1423 0.5 15.5 3.85775 15.5 8C15.5 12.1423 12.1423 15.5 8.00001 15.5C6.803 15.5017 5.62312 15.2156 4.55976 14.666L1.69026 15.4663C1.53016 15.5109 1.36107 15.5122 1.2003 15.4701C1.03953 15.4279 0.892868 15.3437 0.775338 15.2262C0.657809 15.1086 0.573639 14.962 0.531452 14.8012C0.489265 14.6404 0.490578 14.4713 0.535256 14.3113L1.33626 11.444C0.78527 10.3797 0.498448 9.19846 0.500006 8C0.500006 3.85775 3.85776 0.5 8.00001 0.5ZM8.00001 1.625C6.30925 1.625 4.68775 2.29665 3.4922 3.49219C2.29666 4.68774 1.62501 6.30925 1.62501 8C1.62501 9.1025 1.90476 10.1623 2.42976 11.1035L2.54226 11.306L1.70826 14.2933L4.69851 13.4593L4.90101 13.5718C5.75179 14.0448 6.69961 14.3167 7.67177 14.3666C8.64393 14.4165 9.61461 14.2432 10.5094 13.8598C11.4042 13.4765 12.1993 12.8933 12.8337 12.155C13.4682 11.4167 13.9251 10.543 14.1696 9.6007C14.414 8.65845 14.4394 7.67273 14.2438 6.71914C14.0482 5.76555 13.6368 4.86941 13.0412 4.09945C12.4456 3.32948 11.6816 2.70614 10.8078 2.27722C9.93392 1.8483 8.97345 1.62519 8.00001 1.625ZM8.00001 10.625C8.19892 10.625 8.38968 10.704 8.53034 10.8447C8.67099 10.9853 8.75001 11.1761 8.75001 11.375C8.75001 11.5739 8.67099 11.7647 8.53034 11.9053C8.38968 12.046 8.19892 12.125 8.00001 12.125C7.80109 12.125 7.61033 12.046 7.46968 11.9053C7.32902 11.7647 7.25001 11.5739 7.25001 11.375C7.25001 11.1761 7.32902 10.9853 7.46968 10.8447C7.61033 10.704 7.80109 10.625 8.00001 10.625ZM8.00001 4.0625C8.54702 4.0625 9.07162 4.2798 9.45841 4.66659C9.84521 5.05339 10.0625 5.57799 10.0625 6.125C10.0625 6.8825 9.83976 7.3055 9.27426 7.89425L9.14751 8.0225C8.68101 8.489 8.56251 8.687 8.56251 9.125C8.56251 9.27419 8.50324 9.41726 8.39775 9.52275C8.29226 9.62824 8.14919 9.6875 8.00001 9.6875C7.85082 9.6875 7.70775 9.62824 7.60226 9.52275C7.49677 9.41726 7.43751 9.27419 7.43751 9.125C7.43751 8.3675 7.66026 7.9445 8.22576 7.35575L8.35251 7.2275C8.81901 6.761 8.93751 6.563 8.93751 6.125C8.93863 5.88393 8.84684 5.65169 8.6812 5.47652C8.51557 5.30136 8.28883 5.19673 8.04807 5.18438C7.80731 5.17202 7.57105 5.25288 7.38835 5.41017C7.20566 5.56746 7.09057 5.78908 7.06701 6.029L7.06251 6.125C7.06251 6.27418 7.00324 6.41726 6.89775 6.52275C6.79226 6.62824 6.64919 6.6875 6.50001 6.6875C6.35082 6.6875 6.20775 6.62824 6.10226 6.52275C5.99677 6.41726 5.93751 6.27418 5.93751 6.125C5.93751 5.57799 6.1548 5.05339 6.5416 4.66659C6.92839 4.2798 7.453 4.0625 8.00001 4.0625Z" fill="black"/>
</svg>
