<svg width="13" height="12" viewBox="0 0 13 12" fill="none" xmlns="http://www.w3.org/2000/svg">
<path d="M11.9569 11.7868L11.9199 11.9092L11.7955 11.9382C11.7847 11.9407 11.5279 12 11.206 12C10.7335 12 10.3556 11.8718 10.1134 11.6291L8.06706 9.58283L2.28775 10.5967L1.13371 9.44262L5.6922 7.20755L3.50567 5.02102C3.33393 4.84928 3.05849 4.49751 2.93529 4.33739L0.535536 4.20631L0 3.17962L2.62085 2.60011L3.17257 0L4.18847 0.5513L4.36726 2.80171C4.53733 2.95769 4.99613 3.37998 5.21059 3.59486L7.25277 5.63744L9.47912 1.09721L10.6332 2.25124L9.62348 8.00691L11.6793 10.0628C12.0344 10.4183 12.1514 11.1434 11.9573 11.7864L11.9569 11.7868Z" fill="black" fill-opacity="0.5"/>
</svg>
