<svg width="12" height="15" viewBox="0 0 12 15" fill="none" xmlns="http://www.w3.org/2000/svg">
<path d="M12.0004 6.22727C12.0004 10.6818 6.27317 14.5 6.27317 14.5C6.27317 14.5 0.545898 10.6818 0.545898 6.22727C0.545898 4.70831 1.14931 3.25155 2.22338 2.17748C3.29745 1.10341 4.7542 0.5 6.27317 0.5C7.79214 0.5 9.24889 1.10341 10.323 2.17748C11.397 3.25155 12.0004 4.70831 12.0004 6.22727Z" fill="#172B85"/>
<path d="M6.27361 9.40954C8.03088 9.40954 9.45543 7.98499 9.45543 6.22772C9.45543 4.47045 8.03088 3.0459 6.27361 3.0459C4.51635 3.0459 3.0918 4.47045 3.0918 6.22772C3.0918 7.98499 4.51635 9.40954 6.27361 9.40954Z" fill="white"/>
</svg>
