<svg width="94" height="24" viewBox="0 0 94 24" fill="none" xmlns="http://www.w3.org/2000/svg">
<path d="M34.2257 11.176C33.7971 10.4106 33.5828 9.79069 33.5828 9.31617C33.5828 8.82635 33.7129 8.51256 33.9731 8.37479C34.8456 7.99212 36.0395 7.80078 37.5549 7.80078C39.0856 7.80078 40.1648 8.1605 40.7924 8.87992C41.4199 9.58404 41.7337 10.6326 41.7337 12.0255V15.6533H42.5144C42.7746 15.6533 42.9736 15.8063 43.1114 16.1125C43.2644 16.4186 43.341 16.8396 43.341 17.3753C43.341 17.911 43.2032 18.4391 42.9277 18.9596C42.6675 19.48 42.3077 19.7402 41.8485 19.7402C41.022 19.7402 40.3561 19.5183 39.851 19.0744C39.6214 18.8907 39.4453 18.6687 39.3229 18.4085C38.6188 19.2963 37.5243 19.7402 36.0395 19.7402C34.9221 19.7402 33.9808 19.3422 33.2154 18.5463C32.4501 17.7503 32.0674 16.8089 32.0674 15.7221C32.0674 13.2271 33.5598 11.9796 36.5447 11.9796H37.8075V11.75C37.8075 11.352 37.7386 11.0994 37.6009 10.9923C37.4784 10.8698 37.1799 10.8086 36.7054 10.8086C36.1237 10.8086 35.2972 10.9311 34.2257 11.176ZM36.0625 15.4007C36.0625 15.7374 36.1543 15.9977 36.338 16.1814C36.5217 16.3497 36.7513 16.4339 37.0268 16.4339C37.3177 16.4339 37.5779 16.3191 37.8075 16.0895V14.3216H37.1646C36.4299 14.3216 36.0625 14.6813 36.0625 15.4007Z" fill="#1A1A1A"/>
<path d="M30.7013 19.3267C30.7013 19.4644 29.9206 19.5333 28.3593 19.5333C27.1347 19.518 26.5225 19.4568 26.5225 19.3496V3.71355C26.5225 3.48394 27.2648 3.36914 28.7496 3.36914C30.0507 3.41506 30.7013 3.4916 30.7013 3.59875V19.3267Z" fill="#1A1A1A"/>
<path d="M16.1085 11.176C15.6799 10.4106 15.4656 9.79069 15.4656 9.31617C15.4656 8.82635 15.5957 8.51256 15.8559 8.37479C16.7284 7.99212 17.9224 7.80078 19.4377 7.80078C20.9684 7.80078 22.0476 8.1605 22.6752 8.87992C23.3028 9.58404 23.6166 10.6326 23.6166 12.0255V15.6533H24.3972C24.6574 15.6533 24.8564 15.8063 24.9942 16.1125C25.1472 16.4186 25.2238 16.8396 25.2238 17.3753C25.2238 17.911 25.086 18.4391 24.8105 18.9596C24.5503 19.48 24.1906 19.7402 23.7314 19.7402C22.9048 19.7402 22.2389 19.5183 21.7338 19.0744C21.5042 18.8907 21.3282 18.6687 21.2057 18.4085C20.5016 19.2963 19.4071 19.7402 17.9224 19.7402C16.8049 19.7402 15.8636 19.3422 15.0982 18.5463C14.3329 17.7503 13.9502 16.8089 13.9502 15.7221C13.9502 13.2271 15.4426 11.9796 18.4275 11.9796H19.6903V11.75C19.6903 11.352 19.6214 11.0994 19.4837 10.9923C19.3612 10.8698 19.0627 10.8086 18.5882 10.8086C18.0065 10.8086 17.18 10.9311 16.1085 11.176ZM17.9453 15.4007C17.9453 15.7374 18.0372 15.9977 18.2208 16.1814C18.4045 16.3497 18.6341 16.4339 18.9097 16.4339C19.2005 16.4339 19.4607 16.3191 19.6903 16.0895V14.3216H19.0474C18.3127 14.3216 17.9453 14.6813 17.9453 15.4007Z" fill="#1A1A1A"/>
<path d="M12.4905 19.121C12.4905 19.3812 11.7175 19.5113 10.1715 19.5113C8.62548 19.5113 7.85248 19.3812 7.85248 19.121V13.8401H4.63801V19.121C4.63801 19.3812 3.86501 19.5113 2.31901 19.5113C0.773002 19.5113 0 19.3812 0 19.121V3.89819C0 3.57674 0.773002 3.41602 2.31901 3.41602C3.86501 3.41602 4.63801 3.57674 4.63801 3.89819V9.2939H7.85248V3.94411C7.85248 3.72981 8.23515 3.57674 9.0005 3.4849C9.39848 3.45428 9.78881 3.43898 10.1715 3.43898L11.3425 3.4849C12.1078 3.57674 12.4905 3.72981 12.4905 3.94411V19.121Z" fill="#1A1A1A"/>
<path d="M82.127 8.45569C82.127 8.28731 82.8234 8.20312 84.2164 8.20312C85.6246 8.20312 86.3517 8.27966 86.3976 8.43273L88.0508 13.8514L89.635 8.38681C89.6963 8.26435 90.1708 8.20312 91.0586 8.20312C93.0944 8.20312 94.0664 8.30262 93.9746 8.50161L88.5788 23.8622C88.5635 23.954 88.1426 23.9999 87.316 23.9999C86.5047 23.9999 85.7471 23.9693 85.0429 23.9081C84.3388 23.8622 84.0021 23.8009 84.0327 23.7244L86.0302 18.9027L82.127 8.45569Z" fill="#1A1A1A"/>
<path d="M73.7356 19.499C73.7356 19.7286 73.0162 19.8434 71.5774 19.8434L70.2916 19.7745C69.5262 19.7133 69.1436 19.6061 69.1436 19.4531V4.04658C69.1436 3.78636 69.9089 3.65625 71.4396 3.65625C72.9703 3.65625 73.7356 3.78636 73.7356 4.04658V9.92446L76.5368 4.04658C76.644 3.83228 77.2563 3.72513 78.3737 3.72513C80.4095 3.72513 81.481 3.90116 81.5881 4.25322C81.5881 4.28384 81.5805 4.31445 81.5652 4.34506L77.57 11.5547L82.2081 17.9606C82.2081 17.9912 82.0626 18.1213 81.7718 18.3509C81.0677 18.9632 80.2411 19.4454 79.2921 19.7975C79.0012 19.9046 78.7104 19.9582 78.4196 19.9582L77.8685 19.9123C77.3787 19.7898 76.996 19.476 76.7205 18.9709L74.103 13.9655H73.7356V19.499Z" fill="#1A1A1A"/>
<mask id="mask0_230_466" style="mask-type:luminance" maskUnits="userSpaceOnUse" x="45" y="0" width="21" height="24">
<path d="M58.5975 1.07581C58.6121 1.35326 58.578 1.63111 58.4966 1.8971L57.5397 5.05865C57.5397 5.05865 56.6438 7.92937 59.2755 8.09514C60.8077 8.19136 61.913 8.17551 62.569 8.1456C63.5 8.10271 64.4075 8.48579 64.9923 9.20113C65.0103 9.22311 65.0289 9.24509 65.045 9.2678C65.769 10.2094 65.7051 11.5295 64.9196 12.4221C62.3976 15.2864 56.3083 21.5529 54.9154 22.981C54.7814 23.1209 54.6127 23.2238 54.4261 23.2797C54.2394 23.3355 54.0412 23.3424 53.851 23.2996C53.5681 23.2322 53.2815 23.0553 53.1335 22.6448C53.0384 22.372 53.0257 22.0778 53.097 21.7979C53.4891 20.1853 53.9318 18.6234 54.09 18.0735C54.1939 17.7214 54.2233 17.3521 54.1767 16.9884C54.1185 16.556 53.9376 16.0388 53.4628 15.6291C53.0593 15.2867 52.5423 15.1023 52.0099 15.1109C50.556 15.1242 49.0128 15.1163 48.2394 15.1109C47.9067 15.1109 47.5779 15.0413 47.2745 14.9067C46.9711 14.7722 46.7002 14.5757 46.4795 14.3303C46.1505 13.9573 45.8811 13.4164 45.8684 12.642C45.8635 12.1738 45.9531 11.7094 46.1319 11.2757C46.3108 10.842 46.5753 10.4477 46.91 10.1158C49.8081 7.21007 55.3284 1.70646 56.638 0.40083C56.7756 0.260941 56.943 0.152843 57.128 0.0843033C57.313 0.0157632 57.5112 -0.0115177 57.7082 0.0044207C58.1216 0.044422 58.5525 0.279025 58.5975 1.07581Z" fill="white"/>
</mask>
<g mask="url(#mask0_230_466)">
<path d="M57.9196 -1.14492L43.1064 14.4082L45.9869 17.1489L60.8 1.59579L57.9196 -1.14492Z" fill="#C80100"/>
<path d="M60.6383 1.44297L45.8252 16.9961L48.7057 19.7368L63.5188 4.18369L60.6383 1.44297Z" fill="#C80100"/>
<path d="M63.3571 4.02891L48.5439 19.582L51.4244 22.3227L66.2375 6.76962L63.3571 4.02891Z" fill="#ED0006"/>
<path d="M66.0758 6.61484L51.2627 22.168L54.1432 24.9087L68.9563 9.35556L66.0758 6.61484Z" fill="#ED0006"/>
</g>
</svg>
