<svg width="221" height="47" viewBox="0 0 221 47" fill="none" xmlns="http://www.w3.org/2000/svg">
<mask id="mask0_150_6750" style="mask-type:luminance" maskUnits="userSpaceOnUse" x="0" y="4" width="36" height="40">
<path d="M0 4.20445H35.4254V44H0V4.20445Z" fill="white"/>
</mask>
<g mask="url(#mask0_150_6750)">
<path fill-rule="evenodd" clip-rule="evenodd" d="M35.5886 36.0414C31.9798 40.8415 26.2383 43.9462 19.7733 43.9462C12.7983 43.9462 6.66599 40.3345 3.14582 34.8777C1.15546 31.7919 -0.000976562 28.1178 -0.000976562 24.1734C-0.000976562 23.8421 0.00774024 23.5123 0.0237213 23.1854C0.53947 12.7252 9.18517 4.40055 19.7733 4.40055C20.2077 4.40055 20.6363 4.41653 21.0634 4.44413C20.998 4.51096 20.9414 4.59232 20.9007 4.69111C20.8019 4.92792 20.8179 5.19959 20.8091 5.45238C20.8062 5.55408 20.6624 5.67321 20.6058 5.74876C20.4837 5.91002 20.4111 6.06402 20.3501 6.25724C20.3355 6.30083 20.3297 6.34586 20.3254 6.38654C20.1409 6.38073 19.9563 6.37783 19.7718 6.37783C9.945 6.37783 1.97631 14.3465 1.97631 24.1734C1.97631 24.3259 1.97631 24.4799 1.98212 24.631V24.6325C1.98502 24.7835 1.99083 24.9361 1.99955 25.0857V25.0901C2.00681 25.2397 2.01553 25.3894 2.02715 25.539V25.5448C2.04023 25.6945 2.0533 25.8426 2.06638 25.9908L2.06783 25.9923C2.09689 26.2901 2.13466 26.5879 2.1797 26.8814L2.18115 26.8843C2.20294 27.0296 2.22619 27.1763 2.25379 27.3216V27.3231C2.27849 27.4683 2.30755 27.6136 2.3366 27.7575V27.7604C2.36711 27.9042 2.39762 28.0466 2.42958 28.1889L2.43104 28.1918C2.49205 28.4548 2.55888 28.7178 2.63152 28.9764C2.63443 28.988 2.63879 28.9996 2.64315 29.0112C2.65477 29.0548 2.66639 29.097 2.67947 29.1391C2.70562 29.2277 2.73032 29.3149 2.75792 29.4035C2.7739 29.4514 2.78843 29.4994 2.80296 29.5473C2.82911 29.6301 2.85671 29.7129 2.88286 29.7958C2.89884 29.8422 2.91482 29.8902 2.9308 29.9381C2.96131 30.0253 2.99328 30.1139 3.02378 30.1996C3.03831 30.2389 3.05139 30.2795 3.06592 30.3188C3.11241 30.4452 3.16035 30.5701 3.20975 30.6951L3.2112 30.6994C3.26059 30.8229 3.30999 30.9464 3.36229 31.067C3.37827 31.1062 3.39425 31.1454 3.41169 31.1846C3.44946 31.2689 3.48578 31.3532 3.5221 31.436C3.54099 31.4825 3.56278 31.5261 3.58312 31.5711C3.62089 31.651 3.65576 31.728 3.69353 31.8065C3.71387 31.85 3.73421 31.8951 3.756 31.9387C3.79668 32.0215 3.83736 32.1043 3.87949 32.1871C3.89838 32.2234 3.91727 32.2612 3.93615 32.299C3.99572 32.4166 4.05819 32.5329 4.12066 32.6491C4.12792 32.6622 4.13519 32.6752 4.14245 32.6883C4.19766 32.79 4.25577 32.8946 4.31534 32.9963C4.33713 33.0355 4.36037 33.0733 4.38217 33.1125C4.4272 33.1895 4.47224 33.2665 4.51873 33.3435C4.54343 33.3857 4.56958 33.4263 4.59573 33.467L4.7323 33.6879C4.75845 33.7285 4.7846 33.7692 4.80929 33.8084C4.86014 33.8883 4.91244 33.9668 4.96475 34.0438C4.98654 34.0758 5.00688 34.1092 5.02867 34.1411C5.10276 34.2501 5.17831 34.3591 5.25386 34.4651C5.26693 34.4825 5.28001 34.5014 5.29308 34.5189C5.35701 34.6089 5.42093 34.6976 5.48776 34.7862C5.51536 34.8225 5.54297 34.8574 5.56912 34.8951C5.62287 34.9649 5.67663 35.0346 5.73038 35.1043C5.76089 35.1421 5.78995 35.1813 5.82045 35.2191C5.87421 35.2874 5.92796 35.3542 5.98172 35.4196C6.01223 35.4574 6.04419 35.4952 6.0747 35.5315C6.13426 35.6041 6.19528 35.6738 6.2563 35.7465C6.281 35.7755 6.30715 35.8046 6.33039 35.8337C6.41611 35.9324 6.50473 36.0312 6.5919 36.1271C6.60933 36.1475 6.62677 36.1664 6.6442 36.1852C6.71539 36.2637 6.78803 36.3421 6.86212 36.4177L6.9551 36.5136C7.01612 36.5775 7.07859 36.6414 7.14106 36.7039C7.17448 36.7402 7.20935 36.7736 7.24421 36.8085C7.30523 36.8695 7.3677 36.9305 7.43163 36.9901C7.46359 37.0221 7.497 37.054 7.53042 37.0874C7.60161 37.1528 7.67279 37.2182 7.74398 37.285C7.77013 37.3097 7.79628 37.333 7.82243 37.3577C7.91977 37.4448 8.01711 37.532 8.1159 37.6177C8.13915 37.6366 8.16239 37.6569 8.18419 37.6773C8.26264 37.7427 8.34109 37.808 8.41954 37.8734C8.45441 37.9025 8.49073 37.933 8.5256 37.962C8.59388 38.0172 8.66216 38.0724 8.73044 38.1262C8.76822 38.1567 8.80599 38.1858 8.84376 38.2163C8.91204 38.27 8.98323 38.3223 9.05297 38.3746C9.08929 38.4037 9.12561 38.4313 9.16338 38.4589C9.24474 38.5185 9.32755 38.578 9.40891 38.6376C9.43361 38.6565 9.4583 38.6739 9.483 38.6928C9.59196 38.7683 9.69947 38.8439 9.80843 38.918C9.83603 38.9369 9.86364 38.9543 9.8927 38.9732C9.97405 39.0269 10.0569 39.0822 10.1411 39.1374C10.1804 39.1621 10.2196 39.1868 10.2588 39.2129C10.3329 39.2594 10.407 39.3059 10.4796 39.3495C10.5232 39.3771 10.5653 39.4032 10.6075 39.4279C10.6816 39.473 10.7571 39.5165 10.8327 39.5601C10.8733 39.5834 10.9126 39.6081 10.9533 39.6313C11.0448 39.6822 11.1349 39.7345 11.2278 39.7839C11.2511 39.7969 11.2758 39.8115 11.3005 39.8245C11.4182 39.887 11.5344 39.9509 11.6521 40.0105C11.684 40.0265 11.716 40.0425 11.7479 40.0584C11.8351 40.102 11.9223 40.1456 12.0109 40.1892C12.053 40.2095 12.0966 40.2299 12.1417 40.2502C12.2201 40.288 12.2971 40.3243 12.377 40.3606C12.422 40.381 12.4685 40.4028 12.5136 40.4231C12.5935 40.4594 12.6748 40.4943 12.7547 40.5292C12.7983 40.548 12.8419 40.5669 12.8855 40.5844C12.9843 40.6265 13.086 40.6672 13.1862 40.7079C13.2095 40.7166 13.2327 40.7267 13.2545 40.7355C13.3809 40.7849 13.5058 40.8328 13.6308 40.8793C13.6657 40.8924 13.702 40.904 13.7368 40.9171C13.8298 40.9505 13.9228 40.9824 14.0143 41.0159C14.0594 41.0289 14.1044 41.0449 14.1494 41.0594C14.2337 41.087 14.318 41.1146 14.4008 41.1408C14.4502 41.1568 14.4981 41.1713 14.5461 41.1858C14.6332 41.212 14.7204 41.2396 14.8061 41.2643C14.8512 41.2774 14.8947 41.2904 14.9383 41.3021C15.0502 41.334 15.1621 41.3645 15.2754 41.395C15.2943 41.3994 15.3131 41.4052 15.332 41.4081C15.4628 41.443 15.595 41.4749 15.7257 41.5054C15.7679 41.5142 15.8071 41.5229 15.8478 41.5331C15.9408 41.5534 16.0337 41.5737 16.1267 41.5926C16.1776 41.6042 16.227 41.613 16.2778 41.6246C16.365 41.6406 16.4522 41.658 16.5379 41.674C16.5873 41.6827 16.6367 41.6929 16.6875 41.7016C16.7805 41.7161 16.8735 41.7321 16.9665 41.7466C17.0115 41.7539 17.0536 41.7611 17.0972 41.7684C17.2265 41.7873 17.3558 41.8062 17.4851 41.8222C17.4924 41.8222 17.4996 41.8236 17.5084 41.8251C17.6449 41.8425 17.7829 41.8585 17.921 41.873C17.9645 41.8774 18.0067 41.8803 18.0517 41.8846C18.1476 41.8948 18.2435 41.9035 18.3408 41.9108C18.3815 41.9151 18.4222 41.9166 18.4643 41.921C18.4745 41.921 18.4832 41.921 18.4934 41.9224C18.5834 41.9297 18.675 41.9355 18.7665 41.9398C18.8188 41.9427 18.8696 41.9457 18.9205 41.9486C19.0178 41.9529 19.1137 41.9558 19.2111 41.9587C19.2561 41.9602 19.3011 41.9631 19.3462 41.9631C19.4885 41.9674 19.628 41.9689 19.7718 41.9689C19.83 41.9689 19.8866 41.9689 19.9447 41.9689H19.9752C20.0028 41.9689 20.0319 41.9689 20.0595 41.9674C26.0189 41.9486 31.4554 39.7112 35.5886 36.0414Z" fill="#172B85"/>
</g>
<path fill-rule="evenodd" clip-rule="evenodd" d="M20.7622 39.9641C20.6285 39.9728 20.4949 39.98 20.3598 39.9844C20.1665 39.9917 19.969 39.9946 19.7728 39.9946C17.9801 39.9946 16.2599 39.6967 14.6517 39.1476C8.49172 37.041 4.0432 31.237 3.95458 24.3826C3.95458 24.3143 3.95312 24.2431 3.95312 24.1749C3.95312 24.1109 3.95312 24.0485 3.95312 23.9845C4.05337 16.613 9.94163 10.6404 17.2783 10.4022L17.2173 10.5692C15.1427 10.9542 13.2279 11.8056 11.5891 13.0085C8.22004 15.4827 6.01031 19.4459 5.93186 23.9279C5.93041 24.0092 5.93041 24.0906 5.93041 24.1734C5.93041 29.3353 8.4031 33.9218 12.2298 36.8085C14.6328 38.6246 17.5689 39.7679 20.7622 39.9641Z" fill="#FF9100"/>
<mask id="mask1_150_6750" style="mask-type:luminance" maskUnits="userSpaceOnUse" x="16" y="0" width="11" height="11">
<path d="M16.6445 0H26.6864V10.899H16.6445V0Z" fill="white"/>
</mask>
<g mask="url(#mask1_150_6750)">
<path fill-rule="evenodd" clip-rule="evenodd" d="M26.5978 5.39433C26.5746 5.46116 26.5165 5.52364 26.4264 5.5803C26.2114 5.72122 25.8119 5.83744 25.286 5.93042C25.2685 5.93333 25.2482 5.93623 25.2322 5.93914C24.9242 5.99144 24.5755 6.03648 24.1993 6.0728C23.9029 6.1004 23.592 6.12365 23.2665 6.14253L22.9222 6.61615L22.2612 7.52561L21.7919 8.17357H21.7905L20.9566 9.3242L20.4583 10.0085L20.281 10.2482L20.0834 10.5228L20.0268 10.5998C19.9236 10.7189 19.7711 10.7944 19.6011 10.7944C19.2916 10.7944 19.0403 10.5431 19.0403 10.2322C19.0403 10.2017 19.0418 10.1712 19.0476 10.1421C19.0766 10.068 19.1071 9.99249 19.1362 9.9184C19.1435 9.89951 19.1507 9.87917 19.158 9.86029C19.1696 9.83414 19.1812 9.80799 19.1914 9.78184L19.7333 8.29415C19.9469 7.66073 20.1415 7.02585 20.3144 6.39387C20.3202 6.37208 20.3275 6.34883 20.3333 6.32559H16.7725V4.74783C17.0746 4.69117 17.3783 4.64032 17.6834 4.59965C18.1643 4.53427 18.6495 4.48923 19.1347 4.46308H20.3333C20.3304 4.45436 20.329 4.4471 20.326 4.43838C20.1503 3.79333 19.9512 3.14392 19.7333 2.49597L19.2611 1.20006L19.1914 1.00829C19.1812 0.982136 19.1711 0.955985 19.1594 0.929834C19.1522 0.909495 19.1449 0.890608 19.1362 0.871722C19.1071 0.797628 19.0766 0.722082 19.0476 0.646535C19.0418 0.618932 19.0403 0.588423 19.0403 0.557914C19.0403 0.245559 19.2916 -0.00432587 19.6025 -0.00432587C19.7711 -0.00432587 19.9236 0.0697676 20.0268 0.190351L20.0834 0.267351L20.2825 0.541933L20.4583 0.780194L20.8549 1.32355L20.958 1.46592L21.7905 2.61655H21.7919L22.2626 3.26451L23.2665 4.64613C23.592 4.66647 23.9043 4.68827 24.1993 4.71732C24.577 4.75364 24.9242 4.79868 25.2322 4.85098C25.2496 4.85389 25.27 4.85679 25.2874 4.8597C25.8133 4.95268 26.2114 5.06745 26.4279 5.20837C26.5165 5.26649 26.5746 5.32896 26.5978 5.39433Z" fill="#172B85"/>
</g>
<mask id="mask2_150_6750" style="mask-type:luminance" maskUnits="userSpaceOnUse" x="14" y="21" width="8" height="12">
<path d="M14.667 21.9844H21.0467V32.8554H14.667V21.9844Z" fill="white"/>
</mask>
<g mask="url(#mask2_150_6750)">
<path d="M20.3038 25.3053L20.2638 25.1155C20.4037 25.1729 20.5635 25.2591 20.7421 25.3865C20.7421 25.3865 20.5398 25.1305 20.2151 24.8844L20.1764 24.6958C20.325 24.7545 20.4986 24.8445 20.6947 24.9831C20.6947 24.9831 20.4736 24.7046 20.1239 24.4485L20.0702 24.1875C20.2301 24.2437 20.4199 24.3374 20.636 24.4922C20.636 24.4922 20.3924 24.185 20.014 23.9202L19.9915 23.8153C20.1589 23.8703 20.3612 23.9664 20.5935 24.1325C20.5935 24.1325 20.3337 23.8053 19.9328 23.5343L19.9003 23.3744C20.0739 23.4269 20.29 23.5243 20.5423 23.7041C20.5423 23.7041 20.2638 23.3519 19.8379 23.0772L19.7929 22.8611C19.9515 22.9173 20.1401 23.0122 20.355 23.1646C20.355 23.1646 20.1139 22.8598 19.738 22.5963L19.643 22.1429H15.5052C15.0443 22.1429 14.6709 22.5164 14.6709 22.9772V31.7238C14.6709 32.1846 15.0443 32.5593 15.5052 32.5593C17.3837 32.5593 19.0873 31.444 19.8254 29.7167C20.1139 29.0385 20.3287 28.3029 20.4237 27.5135L20.1614 27.7083C20.1676 27.5897 20.1814 27.4585 20.2088 27.3124C20.2088 27.3124 20.1077 27.5148 20.019 27.8158L19.8504 27.9406C19.8441 27.777 19.8554 27.5797 19.8978 27.3474C19.8978 27.3474 19.7392 27.6634 19.6455 28.093L19.4782 28.2179C19.4669 28.0443 19.4769 27.8332 19.5244 27.5772C19.5244 27.5772 19.3508 27.9219 19.2596 28.3803L19.0273 28.5539C19.0098 28.3715 19.0161 28.1417 19.0685 27.8582C19.0685 27.8582 18.8774 28.2379 18.79 28.73L18.6976 28.7999C18.6751 28.6101 18.6776 28.369 18.7338 28.0643C18.7338 28.0643 18.5315 28.469 18.4478 28.9848L18.3054 29.091C18.2779 28.8961 18.2754 28.6388 18.3366 28.3091C18.3366 28.3091 18.1181 28.7437 18.0419 29.287L17.8508 29.4294C17.8333 29.2483 17.8408 29.0198 17.892 28.74C17.892 28.74 17.7034 29.1159 17.616 29.6055L17.0027 30.0614C17.2051 28.108 18.5864 27.3799 19.7017 27.1126L19.648 27.1176C19.728 27.0014 19.8241 26.8765 19.9428 26.7466C19.9428 26.7466 19.7142 26.8865 19.437 27.1363L19.1884 27.1575C19.2846 26.9877 19.4182 26.7966 19.6068 26.588C19.6068 26.588 19.2496 26.8078 18.8862 27.1838L18.6414 27.2063C18.7375 27.0239 18.8787 26.8166 19.086 26.588C19.086 26.588 18.6963 26.8278 18.3166 27.235L17.9744 27.265C18.0706 27.0689 18.2205 26.8416 18.449 26.588C18.449 26.588 18.0206 26.8515 17.626 27.2949L17.4886 27.3074C17.5835 27.1026 17.7371 26.8603 17.9832 26.588C17.9832 26.588 17.526 26.869 17.1214 27.3399L16.9116 27.3586C17.004 27.1438 17.1626 26.8828 17.4299 26.588C17.4299 26.588 16.9378 26.8903 16.5219 27.3924L16.2396 27.4173C16.337 27.2237 16.4844 26.9977 16.7117 26.7466C16.7117 26.7466 16.2871 27.0077 15.8936 27.4486L14.9894 27.5285C16.5194 25.5376 18.5477 25.8349 19.8429 26.3307L19.8416 26.3295C19.9703 26.2858 20.1177 26.2458 20.285 26.2133C20.285 26.2133 20.0265 26.1896 19.6668 26.2208L19.4619 26.0947C19.6343 26.0172 19.8504 25.9473 20.1177 25.8961C20.1177 25.8961 19.7117 25.8586 19.2122 25.9386L19.0098 25.8137C19.1897 25.7287 19.4207 25.65 19.713 25.5926C19.713 25.5926 19.2721 25.5526 18.7425 25.6475L18.459 25.4714C18.6476 25.3765 18.8962 25.2866 19.2209 25.2229C19.2209 25.2229 18.735 25.1792 18.1718 25.2928L18.0581 25.2229C18.2504 25.1192 18.5102 25.0206 18.8599 24.9531C18.8599 24.9531 18.3416 24.9057 17.7546 25.0343L17.581 24.9269C17.7783 24.8145 18.0519 24.7033 18.4303 24.6309C18.4303 24.6309 17.8733 24.5797 17.26 24.727L17.0265 24.5822C17.2151 24.4872 17.4611 24.3986 17.7833 24.3361C17.7833 24.3361 17.3012 24.2924 16.7404 24.4048L15.9948 23.9414C18.2804 23.3032 19.6668 24.6309 20.3962 25.7525L20.3375 25.4664C20.4336 25.5164 20.5386 25.5801 20.651 25.66C20.651 25.66 20.5211 25.4964 20.3038 25.3053Z" fill="#FF9100"/>
</g>
<mask id="mask3_150_6750" style="mask-type:luminance" maskUnits="userSpaceOnUse" x="19" y="21" width="8" height="12">
<path d="M19.4482 21.9844H26.6573V32.8554H19.4482V21.9844Z" fill="white"/>
</mask>
<g mask="url(#mask3_150_6750)">
<path d="M25.7787 22.1429H19.946C21.3373 23.1996 21.1975 24.7383 20.9202 25.7025C21.6596 24.5909 23.0384 23.3132 25.2891 23.9414L24.5434 24.4048C23.9827 24.2924 23.5018 24.3361 23.5018 24.3361C23.8228 24.3986 24.0701 24.4872 24.2574 24.5822L24.0239 24.727C23.4106 24.5797 22.8536 24.6309 22.8536 24.6309C23.232 24.7033 23.5068 24.8145 23.7029 24.9269L23.5293 25.0343C22.9423 24.9057 22.4239 24.9531 22.4239 24.9531C22.7737 25.0206 23.0334 25.1192 23.2258 25.2229L23.1134 25.2928C22.5488 25.1792 22.0642 25.2229 22.0642 25.2229C22.389 25.2866 22.6363 25.3765 22.8249 25.4714L22.5426 25.6475C22.0118 25.5526 21.5709 25.5926 21.5709 25.5926C21.8644 25.65 22.0942 25.7287 22.2753 25.8137L22.0717 25.9386C21.5721 25.8586 21.1675 25.8961 21.1675 25.8961C21.4348 25.9473 21.6496 26.0172 21.8219 26.0947L21.6171 26.2208C21.2587 26.1896 20.9989 26.2133 20.9989 26.2133C21.1675 26.2458 21.3136 26.2858 21.4435 26.3295L21.441 26.3307C22.7374 25.8349 24.7645 25.5376 26.2945 27.5285L25.3915 27.4486C24.9968 27.0077 24.5722 26.7466 24.5722 26.7466C24.7995 26.9977 24.9481 27.2237 25.0443 27.4173L24.762 27.3924C24.3461 26.8903 23.8553 26.588 23.8553 26.588C24.1225 26.8828 24.2799 27.1438 24.3723 27.3586L24.1638 27.3399C23.7578 26.869 23.3007 26.588 23.3007 26.588C23.5468 26.8603 23.7004 27.1026 23.7953 27.3074L23.6579 27.2949C23.2633 26.8515 22.8349 26.588 22.8349 26.588C23.0634 26.8416 23.2133 27.0689 23.3095 27.265L22.9672 27.235C22.5876 26.8278 22.1991 26.588 22.1991 26.588C22.4052 26.8166 22.5476 27.0239 22.6438 27.2063L22.3977 27.1838C22.0343 26.8078 21.6771 26.588 21.6771 26.588C21.8657 26.7966 22.0005 26.9877 22.0955 27.1575L21.8469 27.1363C21.5697 26.8865 21.3411 26.7466 21.3411 26.7466C21.4597 26.8765 21.5572 27.0014 21.6358 27.1176L21.5821 27.1126C22.6975 27.3799 24.0801 28.108 24.2812 30.0614L23.6692 29.6055C23.5805 29.1159 23.3919 28.74 23.3919 28.74C23.4444 29.0198 23.4506 29.2483 23.4331 29.4294L23.242 29.287C23.1658 28.7437 22.9473 28.3091 22.9473 28.3091C23.0085 28.6388 23.0072 28.8961 22.9785 29.091L22.8361 28.9848C22.7537 28.469 22.5501 28.0643 22.5501 28.0643C22.6063 28.369 22.6088 28.6101 22.5876 28.7999L22.4939 28.73C22.4065 28.2379 22.2154 27.8582 22.2154 27.8582C22.2678 28.1417 22.2741 28.3715 22.2578 28.5539L22.0255 28.3803C21.9331 27.9219 21.7595 27.5772 21.7595 27.5772C21.807 27.8332 21.8169 28.0443 21.8057 28.2179L21.6383 28.093C21.5447 27.6634 21.3861 27.3474 21.3861 27.3474C21.4285 27.5797 21.441 27.777 21.4335 27.9406L21.2662 27.8158C21.1775 27.5148 21.0751 27.3124 21.0751 27.3124C21.1025 27.4585 21.1175 27.5897 21.1225 27.7083L20.9064 27.5485C20.9015 28.5689 20.7366 30.5872 19.6787 32.5593H25.7787C26.2396 32.5593 26.613 32.1846 26.613 31.7238V22.9772C26.613 22.5164 26.2396 22.1429 25.7787 22.1429Z" fill="#172B85"/>
</g>
<mask id="mask4_150_6750" style="mask-type:luminance" maskUnits="userSpaceOnUse" x="16" y="32" width="9" height="2">
<path d="M16.251 32.8555H24.5641V33.6112H16.251V32.8555Z" fill="white"/>
</mask>
<g mask="url(#mask4_150_6750)">
<path d="M22.7123 32.898C22.7947 33.3189 23.1669 33.6373 23.6128 33.6373C24.0587 33.6373 24.4309 33.3189 24.5133 32.898H22.7123ZM17.3068 33.6373C17.7526 33.6373 18.1248 33.3189 18.2073 32.898H16.4062C16.4887 33.3189 16.8609 33.6373 17.3068 33.6373Z" fill="#172B85"/>
</g>
<mask id="mask5_150_6750" style="mask-type:luminance" maskUnits="userSpaceOnUse" x="17" y="14" width="7" height="8">
<path d="M17.8496 14.6667H23.6049V21.9844H17.8496V14.6667Z" fill="white"/>
</mask>
<g mask="url(#mask5_150_6750)">
<path d="M18.4023 21.8046V15.9132C18.4023 15.5847 18.6696 15.3175 18.9993 15.3175H19.5988C19.6275 15.4261 19.7262 15.5061 19.8436 15.5061H21.7071C21.8245 15.5061 21.9231 15.4261 21.9506 15.3175H22.2853C22.6151 15.3175 22.8823 15.5847 22.8823 15.9132V21.8046H23.3432V15.9132C23.3432 15.33 22.8686 14.8553 22.2853 14.8553H21.9506C21.9231 14.7467 21.8245 14.6667 21.7071 14.6667H19.8436C19.7262 14.6667 19.6275 14.7467 19.5988 14.8553H18.9993C18.416 14.8553 17.9414 15.33 17.9414 15.9132V21.8046H18.4023Z" fill="#172B85"/>
</g>
<path d="M59.4792 26.3334V17.625H51.375V26.3334H44V3.39587H51.375V11.7709H59.4792V3.39587H66.8333V26.3334H59.4792Z" fill="#172B85"/>
<path d="M87.1367 26.3334L86.1784 23.1042H78.1367L77.1784 26.3334H69.6367L78.0117 3.39587H86.5742L94.9284 26.3334H87.1367ZM79.6784 17.9584H84.6367L82.2409 9.79171H82.0951L79.6784 17.9584Z" fill="#172B85"/>
<path d="M97.6914 3.39587H105.066V20.4584H116.837V26.3334H97.6914V3.39587Z" fill="#172B85"/>
<path d="M135.297 26.3334L134.339 23.1042H126.297L125.339 26.3334H117.797L126.172 3.39587H134.734L143.089 26.3334H135.297ZM127.839 17.9584H132.797L130.401 9.79171H130.255L127.839 17.9584Z" fill="#172B85"/>
<path d="M155.497 3C158.424 3 160.835 3.59896 162.726 4.79167C164.611 5.97396 165.58 7.72917 165.622 10.0625V10.4583H158.726V10.3333C158.726 9.66667 158.481 9.11458 157.997 8.66667C157.507 8.22396 156.768 8 155.768 8C154.778 8 154.023 8.14583 153.497 8.4375C152.981 8.72917 152.726 9.08333 152.726 9.5C152.726 10.099 153.08 10.5417 153.788 10.8333C154.497 11.125 155.643 11.4271 157.226 11.7292C159.07 12.1042 160.585 12.5 161.768 12.9167C162.96 13.3333 164.002 14.0104 164.893 14.9375C165.778 15.8698 166.236 17.1354 166.268 18.7292C166.268 21.4375 165.351 23.4531 163.518 24.7708C161.684 26.0781 159.231 26.7292 156.163 26.7292C152.58 26.7292 149.794 26.1354 147.809 24.9375C145.82 23.7292 144.83 21.6042 144.83 18.5625H151.788C151.788 19.7188 152.085 20.4896 152.684 20.875C153.294 21.2656 154.231 21.4583 155.497 21.4583C156.424 21.4583 157.195 21.3646 157.809 21.1667C158.419 20.974 158.726 20.5625 158.726 19.9375C158.726 19.3854 158.382 18.9688 157.705 18.6875C157.023 18.4115 155.919 18.1146 154.393 17.7917C152.528 17.4063 150.986 16.9948 149.768 16.5625C148.544 16.1198 147.476 15.3958 146.559 14.3958C145.643 13.3958 145.184 12.0417 145.184 10.3333C145.184 7.82292 146.153 5.97396 148.101 4.79167C150.044 3.59896 152.507 3 155.497 3Z" fill="#172B85"/>
<path d="M185.455 3.39587H194.58L186.351 12.8334L194.746 26.3334H186.059L181.288 17.9375L177.288 21.2084V26.3334H169.913V3.39587H177.288V13.2084L185.455 3.39587Z" fill="#172B85"/>
<path d="M211.925 26.3334H204.55V17.4375L195.446 3.39587H203.925L208.321 11.0417H208.446L212.842 3.39587H220.884L211.925 17.4375V26.3334Z" fill="#172B85"/>
<path d="M50.6228 36.8607V37.8914H47.9474V46.6414H46.6754V37.8914H44V36.8607H50.6228Z" fill="#172B85"/>
<path d="M60.3254 46.6414L58.0008 42.6502H56.4657V46.6414H55.1719V36.8607H58.3298C59.0754 36.8607 59.7004 36.9868 60.2157 37.2335C60.7256 37.4857 61.1039 37.8256 61.3561 38.2642C61.6028 38.6918 61.7289 39.1798 61.7289 39.7335C61.7289 40.4079 61.5315 41.0054 61.1368 41.5318C60.753 42.0471 60.1774 42.3815 59.4043 42.5405L61.8605 46.6414H60.3254ZM56.4657 41.6195H58.3298C59.0315 41.6195 59.5469 41.455 59.8868 41.1151C60.2377 40.7642 60.4131 40.3037 60.4131 39.7335C60.4131 39.1524 60.2377 38.7028 59.8868 38.3958C59.5469 38.0778 59.0315 37.9133 58.3298 37.9133H56.4657V41.6195Z" fill="#172B85"/>
<path d="M72.4807 44.4704H68.2043L67.4368 46.6414H66.0771L69.6079 36.9046H71.0991L74.6079 46.6414H73.2701L72.4807 44.4704ZM72.1079 43.4177L70.3535 38.4835L68.5771 43.4177H72.1079Z" fill="#172B85"/>
<path d="M87.2288 36.8607L83.5446 46.6414H82.0534L78.3691 36.8607H79.7288L82.799 45.3037L85.8691 36.8607H87.2288Z" fill="#172B85"/>
<path d="M92.9042 37.8914V41.1589H96.4568V42.2115H92.9042V45.5887H96.8735V46.6414H91.6104V36.8387H96.8735V37.8914H92.9042Z" fill="#172B85"/>
<path d="M103.091 45.6107H106.512V46.6414H101.797V36.8607H103.091V45.6107Z" fill="#172B85"/>
<path d="M120.697 46.7291C120.05 46.7291 119.474 46.6195 118.965 46.4002C118.449 46.1699 118.049 45.8465 117.758 45.4353C117.462 45.0296 117.309 44.5581 117.298 44.0318H118.679C118.723 44.4868 118.904 44.8761 119.228 45.194C119.562 45.5011 120.05 45.6546 120.697 45.6546C121.295 45.6546 121.772 45.512 122.122 45.216C122.473 44.909 122.649 44.5142 122.649 44.0318C122.649 43.6535 122.545 43.3465 122.342 43.1107C122.133 42.8804 121.881 42.705 121.574 42.5844C121.267 42.4693 120.85 42.3377 120.324 42.1897C119.677 42.0307 119.162 41.8717 118.767 41.7072C118.383 41.5318 118.054 41.2631 117.78 40.8958C117.501 40.534 117.364 40.0515 117.364 39.4484C117.364 38.9111 117.495 38.4342 117.758 38.023C118.033 37.6173 118.416 37.2993 118.899 37.08C119.392 36.8497 119.962 36.7291 120.609 36.7291C121.53 36.7291 122.281 36.9649 122.868 37.4309C123.449 37.8859 123.778 38.4945 123.855 39.2511H122.451C122.408 38.8728 122.21 38.5438 121.859 38.2642C121.508 37.9736 121.048 37.8256 120.478 37.8256C119.951 37.8256 119.518 37.9682 119.184 38.2423C118.844 38.5219 118.679 38.9111 118.679 39.4046C118.679 39.7554 118.773 40.0515 118.965 40.2818C119.167 40.5011 119.414 40.671 119.71 40.7861C120.001 40.9068 120.417 41.0383 120.96 41.1809C121.602 41.3563 122.122 41.5318 122.517 41.7072C122.912 41.8826 123.246 42.1568 123.526 42.5186C123.8 42.8695 123.943 43.3519 123.943 43.966C123.943 44.4484 123.816 44.9035 123.57 45.3256C123.318 45.7532 122.945 46.0932 122.451 46.3563C121.952 46.6085 121.366 46.7291 120.697 46.7291Z" fill="#172B85"/>
<path d="M138.742 36.9264V46.6414H137.47V39.4045L134.224 46.6414H133.325L130.101 39.3826V46.6414H128.808V36.9264H130.189L133.786 44.9528L137.382 36.9264H138.742Z" fill="#172B85"/>
<path d="M149.666 44.4704H145.39L144.622 46.6414H143.263L146.793 36.9046H148.285L151.793 46.6414H150.456L149.666 44.4704ZM149.293 43.4177L147.539 38.4835L145.763 43.4177H149.293Z" fill="#172B85"/>
<path d="M161.476 46.6414L159.151 42.6502H157.616V46.6414H156.322V36.8607H159.48C160.226 36.8607 160.851 36.9868 161.366 37.2335C161.876 37.4857 162.254 37.8256 162.506 38.2642C162.753 38.6918 162.879 39.1798 162.879 39.7335C162.879 40.4079 162.682 41.0054 162.287 41.5318C161.903 42.0471 161.328 42.3815 160.555 42.5405L163.011 46.6414H161.476ZM157.616 41.6195H159.48C160.182 41.6195 160.697 41.455 161.037 41.1151C161.388 40.7642 161.563 40.3037 161.563 39.7335C161.563 39.1524 161.388 38.7028 161.037 38.3958C160.697 38.0778 160.182 37.9133 159.48 37.9133H157.616V41.6195Z" fill="#172B85"/>
<path d="M173.872 36.8607V37.8914H171.196V46.6414H169.924V37.8914H167.249V36.8607H173.872Z" fill="#172B85"/>
</svg>
