<svg width="165" height="40" viewBox="0 0 165 40" fill="none" xmlns="http://www.w3.org/2000/svg">
<path d="M22.7559 26.6471C22.8116 27.3319 23.0766 28.0166 23.5507 28.7014C24.0247 29.3588 24.2618 29.8655 24.2618 30.2216V30.3859C24.2618 30.9063 23.9271 31.1665 23.2578 31.1665H14.9335C14.2642 31.1665 13.9296 30.9063 13.9296 30.3859V30.2216C13.9296 29.8929 14.1806 29.3862 14.6826 28.7014C15.2124 28.0166 15.4634 27.3319 15.4355 26.6471L15.0172 19.0051C14.9057 17.1152 14.6268 15.773 14.1806 14.9787C13.7344 14.157 13.0372 13.7461 12.0891 13.7461C11.1967 13.7461 10.5134 14.1022 10.0394 14.8144C9.59316 15.5265 9.37006 16.4989 9.37006 17.7315V26.6882C9.37006 27.373 9.67682 28.0577 10.2903 28.7425C10.9317 29.3999 11.2524 29.8929 11.2524 30.2216V30.3859C11.2524 30.9063 10.9178 31.1665 10.2485 31.1665H1.17126C0.529855 31.1665 0.209153 30.9063 0.209153 30.3859V30.2216C0.209153 29.8929 0.515911 29.3999 1.12943 28.7425C1.74294 28.0577 2.0497 27.373 2.0497 26.6882V7.62436C2.0497 6.9122 1.70111 6.26853 1.00394 5.69332C0.334645 5.11812 0 4.66618 0 4.33749V4.21423C0 3.7212 0.320702 3.33774 0.962105 3.06383L7.57135 0.187822C8.04543 -0.0313032 8.4219 -0.0586942 8.70077 0.105649C9.00753 0.269992 9.16091 0.584983 9.16091 1.05062V12.9655C10.4158 11.6782 12.1169 11.0345 14.2643 11.0345C16.3279 11.0345 18.1127 11.6919 19.6186 13.0066C21.1245 14.294 21.989 16.3756 22.2121 19.2516L22.7559 26.6471Z" fill="#172B85"/>
<path d="M45.7385 26.6882C45.8222 27.3456 45.9756 27.8797 46.1987 28.2905C46.4497 28.674 46.6867 28.9205 46.9098 29.0301C47.1608 29.1396 47.3839 29.2766 47.5791 29.4409C47.7743 29.6053 47.8719 29.8107 47.8719 30.0572C47.8719 30.9611 46.2963 31.4131 43.145 31.4131C41.8622 31.4131 40.9001 31.2624 40.2587 30.9611C39.6452 30.6598 39.2548 30.1531 39.0875 29.4409C38.0278 30.8652 36.2569 31.5774 33.775 31.5774C31.4325 31.5774 29.5222 31.0433 28.0442 29.9751C26.5941 28.9068 25.869 27.3593 25.869 25.3324C25.869 23.3602 26.5941 21.8264 28.0442 20.7307C29.4943 19.6077 31.2791 19.0462 33.3985 19.0462C35.0438 19.0462 36.4521 19.3886 37.6234 20.0734V19.9501C37.3445 17.2384 37.0238 15.4033 36.6613 14.4446C36.3266 13.4859 35.6574 13.0066 34.6534 13.0066C34.012 13.0066 33.4961 13.2942 33.1057 13.8694C32.7153 14.4446 32.4225 15.0746 32.2272 15.7594C32.0599 16.4441 31.7253 17.0741 31.2233 17.6493C30.7213 18.2245 30.052 18.5121 29.2154 18.5121C28.3509 18.5121 27.6398 18.2656 27.0821 17.7726C26.5522 17.2795 26.2873 16.6359 26.2873 15.8415C26.2873 14.2529 27.096 13.0614 28.7135 12.2671C30.3309 11.4453 32.3109 11.0345 34.6534 11.0345C37.4421 11.0345 39.7428 11.7877 41.5555 13.2942C43.396 14.7733 44.4836 16.7865 44.8183 19.3338L45.7385 26.6882ZM36.0757 29.482C36.7171 29.482 37.233 29.1807 37.6234 28.5781C38.0417 27.9755 38.2509 27.2908 38.2509 26.5238L38.0835 24.6339C37.8047 22.3605 36.9402 21.2238 35.49 21.2238C34.8486 21.2238 34.3327 21.484 33.9423 22.0044C33.5519 22.4974 33.3567 23.1685 33.3567 24.0176C33.3567 25.5515 33.5937 26.8525 34.0678 27.9208C34.5698 28.9616 35.239 29.482 36.0757 29.482Z" fill="#172B85"/>
<path d="M49.7033 31.1665C49.0619 31.1665 48.7412 30.9063 48.7412 30.3859V30.2216C48.7412 29.8929 49.0061 29.3999 49.536 28.7425C50.0937 28.0577 50.3726 27.373 50.3726 26.6882V7.91196C50.3726 7.1998 50.0937 6.51504 49.536 5.85767C49.0061 5.1729 48.7412 4.69357 48.7412 4.41966V4.25532C48.7412 3.95402 49.048 3.63903 49.6615 3.31034L55.9779 0.269992C56.5635 0.0234773 57.0237 0.00978213 57.3583 0.228907C57.7208 0.42064 57.9021 0.721937 57.9021 1.1328V26.6882C57.9021 27.373 58.2089 28.0577 58.8224 28.7425C59.4359 29.3999 59.7427 29.8929 59.7427 30.2216V30.3859C59.7427 30.9063 59.408 31.1665 58.7387 31.1665H49.7033Z" fill="#172B85"/>
<path d="M81.4417 26.6882C81.5253 27.3456 81.6787 27.8797 81.9018 28.2905C82.1528 28.674 82.3898 28.9205 82.6129 29.0301C82.8639 29.1396 83.087 29.2766 83.2822 29.4409C83.4774 29.6053 83.575 29.8107 83.575 30.0572C83.575 30.9611 81.9994 31.4131 78.8482 31.4131C77.5653 31.4131 76.6032 31.2624 75.9618 30.9611C75.3483 30.6598 74.9579 30.1531 74.7906 29.4409C73.7309 30.8652 71.96 31.5774 69.4781 31.5774C67.1356 31.5774 65.2253 31.0433 63.7473 29.9751C62.2972 28.9068 61.5721 27.3593 61.5721 25.3324C61.5721 23.3602 62.2972 21.8264 63.7473 20.7307C65.1974 19.6077 66.9822 19.0462 69.1016 19.0462C70.7469 19.0462 72.1552 19.3886 73.3265 20.0734V19.9501C73.0476 17.2384 72.7269 15.4033 72.3644 14.4446C72.0298 13.4859 71.3605 13.0066 70.3565 13.0066C69.7151 13.0066 69.1992 13.2942 68.8088 13.8694C68.4184 14.4446 68.1256 15.0746 67.9304 15.7594C67.763 16.4441 67.4284 17.0741 66.9264 17.6493C66.4244 18.2245 65.7552 18.5121 64.9185 18.5121C64.054 18.5121 63.3429 18.2656 62.7852 17.7726C62.2553 17.2795 61.9904 16.6359 61.9904 15.8415C61.9904 14.2529 62.7991 13.0614 64.4166 12.2671C66.034 11.4453 68.014 11.0345 70.3565 11.0345C73.1452 11.0345 75.4459 11.7877 77.2586 13.2942C79.0991 14.7733 80.1867 16.7865 80.5214 19.3338L81.4417 26.6882ZM71.7788 29.482C72.4202 29.482 72.9361 29.1807 73.3265 28.5781C73.7448 27.9755 73.954 27.2908 73.954 26.5238L73.7866 24.6339C73.5078 22.3605 72.6433 21.2238 71.1931 21.2238C70.5517 21.2238 70.0358 21.484 69.6454 22.0044C69.255 22.4974 69.0598 23.1685 69.0598 24.0176C69.0598 25.5515 69.2968 26.8525 69.7709 27.9208C70.2729 28.9616 70.9422 29.482 71.7788 29.482Z" fill="#172B85"/>
<path d="M139.586 27.7153C139.725 27.9071 140.143 28.2631 140.841 28.7836C141.566 29.304 141.928 29.7833 141.928 30.2216V30.3859C141.928 30.9063 141.607 31.1665 140.966 31.1665H132.182C131.54 31.1665 131.219 30.8926 131.219 30.3448V30.2216C131.219 29.8929 131.429 29.4957 131.847 29.0301C132.265 28.5371 132.349 28.0988 132.098 27.7153L128.417 22.3331L126.325 24.223V26.6882C126.325 27.373 126.632 28.0577 127.246 28.7425C127.887 29.3999 128.208 29.8929 128.208 30.2216V30.3859C128.208 30.9063 127.873 31.1665 127.204 31.1665H118.168C117.499 31.1665 117.164 30.9063 117.164 30.3859V30.2216C117.164 29.8929 117.443 29.3999 118.001 28.7425C118.559 28.0577 118.838 27.373 118.838 26.6882V7.91196C118.838 7.1998 118.503 6.51504 117.834 5.85767C117.164 5.1729 116.83 4.69357 116.83 4.41966V4.25532C116.83 3.95402 117.136 3.63903 117.75 3.31034L124.443 0.269992C125.029 0.0508674 125.489 0.0371723 125.823 0.228907C126.158 0.42064 126.325 0.721937 126.325 1.1328V20.6486L131.972 15.8826C132.307 15.6635 132.433 15.3896 132.349 15.0609C132.293 14.7322 132.154 14.4446 131.931 14.1981C131.735 13.9242 131.512 13.6229 131.261 13.2942C131.038 12.9655 130.927 12.6779 130.927 12.4314V12.2671C130.927 11.7192 131.247 11.4453 131.889 11.4453H138.498C139.139 11.4453 139.46 11.7056 139.46 12.226V12.3903C139.46 12.719 139.265 13.0614 138.874 13.4175C138.484 13.7461 137.926 14.1433 137.201 14.609C136.504 15.0472 135.946 15.4581 135.528 15.8415L132.851 18.2656L139.586 27.7153Z" fill="#172B85"/>
<path d="M163.838 11.4453C164.479 11.4453 164.8 11.7056 164.8 12.226V12.3903C164.8 12.8012 164.479 13.3627 163.838 14.0748C163.224 14.787 162.792 15.4307 162.541 16.0059L154.635 32.7278C154.245 33.6043 153.854 34.3575 153.464 34.9875C153.101 35.6449 152.585 36.3981 151.916 37.2472C151.275 38.1237 150.508 38.7948 149.615 39.2605C148.723 39.7535 147.761 40 146.729 40C144.777 40 143.174 39.5207 141.919 38.562C140.692 37.6033 140.078 36.494 140.078 35.234C140.078 34.3575 140.343 33.6591 140.873 33.1387C141.403 32.6182 142.128 32.358 143.048 32.358C143.968 32.358 144.679 32.6456 145.181 33.2208C145.711 33.796 146.032 34.4123 146.144 35.0697C146.283 35.7545 146.478 36.3844 146.729 36.9596C146.98 37.5349 147.315 37.8224 147.733 37.8224C148.821 37.8224 150.131 36.0421 151.665 32.4813L143.174 16.0059C142.867 15.4307 142.393 14.8007 141.751 14.1159C141.138 13.4038 140.831 12.8286 140.831 12.3903V12.226C140.831 11.7056 141.152 11.4453 141.793 11.4453H150.787C151.4 11.4453 151.707 11.7192 151.707 12.2671V12.4314C151.707 12.7053 151.582 13.0203 151.331 13.3764C151.08 13.7325 150.912 14.0611 150.829 14.3624C150.745 14.6637 150.842 15.2389 151.121 16.088L155.388 25.9486L159.237 16.7865C159.543 15.773 159.543 15.0746 159.237 14.6911C158.958 14.2803 158.553 13.8694 158.023 13.4585C157.521 13.0477 157.27 12.7053 157.27 12.4314V12.2671C157.27 11.7192 157.591 11.4453 158.233 11.4453H163.838Z" fill="#172B85"/>
<path d="M112.125 39.2112C111.882 39.4084 111.569 39.507 111.184 39.507C110.799 39.507 110.481 39.4084 110.23 39.2112C109.979 39.0139 109.854 38.7222 109.854 38.336C109.854 37.958 109.979 37.6704 110.23 37.4732C110.481 37.276 110.799 37.1774 111.184 37.1774C111.569 37.1774 111.882 37.276 112.125 37.4732C112.376 37.6704 112.502 37.958 112.502 38.336C112.502 38.714 112.376 39.0057 112.125 39.2112Z" fill="#172B85"/>
<path d="M116.349 39.507C115.395 39.507 114.613 39.2029 114.002 38.5949C113.391 37.9786 113.086 37.2514 113.086 36.4132C113.086 35.4847 113.395 34.7451 114.014 34.1946C114.633 33.6358 115.386 33.3523 116.273 33.3441C117.018 33.3359 117.649 33.5043 118.168 33.8494C118.687 34.1864 118.946 34.626 118.946 35.1683C118.946 35.3737 118.871 35.5463 118.72 35.686C118.578 35.8257 118.348 35.8914 118.03 35.8832C117.746 35.8668 117.499 35.7558 117.29 35.5504C117.089 35.345 116.943 35.1231 116.851 34.8848C116.758 34.6465 116.633 34.4329 116.474 34.2439C116.315 34.0467 116.135 33.9481 115.934 33.9481C115.675 33.9563 115.462 34.0919 115.294 34.3548C115.135 34.6178 115.056 34.9423 115.056 35.3285C115.056 36.1338 115.24 36.7789 115.608 37.2637C115.985 37.7485 116.482 37.9909 117.101 37.9909C117.662 37.9909 118.126 37.7526 118.494 37.276C118.578 37.1774 118.679 37.1445 118.796 37.1774C118.913 37.2021 118.971 37.2801 118.971 37.4116C118.955 37.9868 118.716 38.4798 118.256 38.8907C117.796 39.3015 117.16 39.507 116.349 39.507Z" fill="#172B85"/>
<path d="M122.96 39.507C121.989 39.507 121.165 39.2153 120.487 38.6318C119.818 38.0402 119.483 37.3007 119.483 36.4132C119.483 35.5258 119.818 34.7944 120.487 34.2192C121.157 33.6358 121.951 33.3441 122.872 33.3441C123.826 33.3441 124.637 33.6358 125.306 34.2192C125.976 34.8026 126.31 35.5422 126.31 36.4379C126.31 37.3253 125.984 38.0607 125.331 38.6442C124.679 39.2194 123.888 39.507 122.96 39.507ZM123.223 38.903C123.759 38.903 124.026 38.3977 124.026 37.3869C124.026 37.0172 123.972 36.5775 123.863 36.0681C123.763 35.5586 123.587 35.0779 123.336 34.626C123.093 34.174 122.822 33.9481 122.52 33.9481C122.228 33.9481 122.018 34.0754 121.893 34.3302C121.767 34.5849 121.705 34.9711 121.705 35.4888C121.705 35.7599 121.738 36.0804 121.805 36.4502C121.872 36.82 121.964 37.1938 122.081 37.5718C122.198 37.9416 122.357 38.258 122.558 38.5209C122.767 38.7756 122.989 38.903 123.223 38.903Z" fill="#172B85"/>
<path d="M137.528 38.0402C137.545 38.2456 137.624 38.4511 137.767 38.6565C137.909 38.8619 137.98 39.0139 137.98 39.1125V39.1618C137.98 39.318 137.88 39.396 137.679 39.396H135.169C134.968 39.396 134.868 39.318 134.868 39.1618V39.1125C134.868 39.0222 134.947 38.8742 135.106 38.6688C135.265 38.4634 135.336 38.2539 135.319 38.0402L135.194 35.8585C135.161 35.2423 135.077 34.8068 134.943 34.552C134.809 34.2891 134.604 34.1576 134.328 34.1576C134.077 34.1576 133.885 34.2644 133.751 34.4781C133.617 34.6917 133.55 34.9752 133.55 35.3285C133.575 35.5011 133.588 35.6737 133.588 35.8462V38.0402C133.588 38.2456 133.663 38.4511 133.814 38.6565C133.964 38.8619 134.039 39.0139 134.039 39.1125V39.1618C134.039 39.318 133.939 39.396 133.738 39.396H131.241C131.04 39.396 130.94 39.318 130.94 39.1618V39.1125C130.94 39.0139 131.011 38.8619 131.153 38.6565C131.304 38.4511 131.379 38.2456 131.379 38.0402V35.6983C131.379 34.6712 131.095 34.1576 130.526 34.1576C130.25 34.1576 130.04 34.2644 129.898 34.4781C129.756 34.6917 129.685 34.9752 129.685 35.3285V38.0402C129.685 38.2456 129.777 38.4511 129.961 38.6565C130.145 38.8619 130.237 39.0139 130.237 39.1125V39.1618C130.237 39.318 130.137 39.396 129.936 39.396H127.225C127.024 39.396 126.924 39.318 126.924 39.1618V39.1125C126.924 39.0139 127.016 38.8619 127.2 38.6565C127.384 38.4511 127.476 38.2456 127.476 38.0402V35.612C127.476 35.4477 127.418 35.308 127.301 35.193C127.192 35.0697 127.083 34.9629 126.974 34.8725C126.866 34.7821 126.811 34.6876 126.811 34.589V34.552C126.811 34.4452 126.912 34.3425 127.112 34.2439L128.995 33.3934C129.145 33.3277 129.262 33.3277 129.346 33.3934C129.43 33.4591 129.472 33.5577 129.472 33.6892V34.1329C129.856 33.607 130.413 33.3441 131.141 33.3441C132.069 33.3441 132.755 33.681 133.199 34.3548C133.366 34.0343 133.613 33.7878 133.939 33.6153C134.265 33.4345 134.638 33.3441 135.056 33.3441C135.667 33.3441 136.185 33.5454 136.612 33.9481C137.047 34.3507 137.298 35.0122 137.365 35.9325L137.528 38.0402Z" fill="#172B85"/>
<path d="M100.971 9.75469C100.463 9.75469 99.9742 9.5702 99.5925 9.24025C98.4963 8.29338 97.0641 7.71744 95.4909 7.71744C92.0501 7.71744 89.2614 10.4575 89.2614 13.837C89.2594 17.2165 92.0501 19.9536 95.4909 19.9536H103.796C104.942 19.9536 105.873 20.8673 105.873 21.9938C105.873 23.1203 104.942 24.034 103.796 24.034H95.4909C89.7583 24.033 85.11 19.4675 85.11 13.836C85.11 8.20357 89.7583 3.64196 95.4909 3.63903C98.1156 3.64001 100.514 4.5986 102.342 6.17706C103.783 7.42166 102.889 9.75469 100.971 9.75469Z" fill="#FABE2C"/>
<path d="M98.0131 26.1708C98.521 26.1708 99.01 26.3553 99.3916 26.6843C100.488 27.6302 101.919 28.2071 103.493 28.2071C106.943 28.2071 109.738 25.4485 109.721 22.0573C109.705 18.6788 106.864 15.968 103.425 15.968H95.1876C94.0417 15.968 93.1114 15.0553 93.1114 13.9288C93.1114 12.8023 94.0417 11.8896 95.1876 11.8896H103.493C109.225 11.8896 113.875 16.4551 113.875 22.0866C113.875 27.719 109.226 32.2816 103.493 32.2836C100.868 32.2816 98.4713 31.324 96.6436 29.7455C95.2025 28.5029 96.096 26.1708 98.0131 26.1708Z" fill="#FF9100"/>
</svg>
