<svg width="15" height="26" viewBox="0 0 15 26" fill="none" xmlns="http://www.w3.org/2000/svg">
<path d="M12.6 7.4H10.2V3H11C11.1061 3 11.2078 2.95786 11.2828 2.88284C11.3579 2.80783 11.4 2.70609 11.4 2.6V1.4C11.4 1.29391 11.3579 1.19217 11.2828 1.11716C11.2078 1.04214 11.1061 1 11 1H4.6C4.49391 1 4.39217 1.04214 4.31716 1.11716C4.24214 1.19217 4.2 1.29391 4.2 1.4V2.6C4.2 2.70609 4.24214 2.80783 4.31716 2.88284C4.39217 2.95786 4.49391 3 4.6 3H5.4V7.4H3C1.8959 7.40135 1.00135 8.2959 1 9.4V21.8C1.00135 22.9041 1.8959 23.7987 3 23.8V24.6C3 24.7061 3.04214 24.8078 3.11716 24.8828C3.19217 24.9579 3.29391 25 3.4 25H5C5.10609 25 5.20783 24.9579 5.28284 24.8828C5.35786 24.8078 5.4 24.7061 5.4 24.6V23.8H10.2V24.6C10.2 24.7061 10.2421 24.8078 10.3172 24.8828C10.3922 24.9579 10.4939 25 10.6 25H12.2C12.3061 25 12.4078 24.9579 12.4828 24.8828C12.5579 24.8078 12.6 24.7061 12.6 24.6V23.8C13.7041 23.7987 14.5987 22.9041 14.6 21.8V9.4C14.5987 8.2959 13.7041 7.40135 12.6 7.4ZM5 1.8H10.6V2.2H5V1.8ZM6.2 3H9.4V7.4H6.2V3ZM4.6 24.2H3.8V23.8H4.6V24.2ZM11.8 24.2H11V23.8H11.8V24.2ZM13.8 21.8C13.8 22.4627 13.2627 23 12.6 23H3C2.3373 23 1.8 22.4627 1.8 21.8V9.4C1.8 8.7373 2.3373 8.2 3 8.2H12.6C13.2627 8.2 13.8 8.7373 13.8 9.4V21.8Z" fill="black" stroke="black" stroke-width="0.5"/>
<path d="M7.8002 9C7.69411 9 7.59237 9.04214 7.51735 9.11716C7.44234 9.19217 7.4002 9.29391 7.4002 9.4V21.8C7.4002 21.9061 7.44234 22.0078 7.51735 22.0828C7.59237 22.1579 7.69411 22.2 7.8002 22.2C7.90628 22.2 8.00802 22.1579 8.08304 22.0828C8.15805 22.0078 8.2002 21.9061 8.2002 21.8V9.4C8.2002 9.29391 8.15805 9.19217 8.08304 9.11716C8.00802 9.04214 7.90628 9 7.8002 9ZM11.0002 9.8C10.8941 9.8 10.7924 9.84214 10.7174 9.91716C10.6423 9.99217 10.6002 10.0939 10.6002 10.2V21C10.6002 21.1061 10.6423 21.2078 10.7174 21.2828C10.7924 21.3579 10.8941 21.4 11.0002 21.4C11.1063 21.4 11.208 21.3579 11.283 21.2828C11.3581 21.2078 11.4002 21.1061 11.4002 21V10.2C11.4002 10.0939 11.3581 9.99217 11.283 9.91716C11.208 9.84214 11.1063 9.8 11.0002 9.8ZM4.6002 9.8C4.49411 9.8 4.39237 9.84214 4.31735 9.91716C4.24234 9.99217 4.2002 10.0939 4.2002 10.2V21C4.2002 21.1061 4.24234 21.2078 4.31735 21.2828C4.39237 21.3579 4.49411 21.4 4.6002 21.4C4.70628 21.4 4.80802 21.3579 4.88304 21.2828C4.95805 21.2078 5.0002 21.1061 5.0002 21V10.2C5.0002 10.0939 4.95805 9.99217 4.88304 9.91716C4.80802 9.84214 4.70628 9.8 4.6002 9.8Z" fill="black" stroke="black" stroke-width="0.5"/>
</svg>
