<svg width="143" height="36" viewBox="0 0 143 36" fill="none" xmlns="http://www.w3.org/2000/svg">
<path d="M51.93 16.5421C51.2797 15.3808 50.9546 14.4402 50.9546 13.7202C50.9546 12.977 51.152 12.5009 51.5468 12.2919C52.8707 11.7112 54.6823 11.4209 56.9816 11.4209C59.3041 11.4209 60.9415 11.9667 61.8937 13.0583C62.846 14.1267 63.3221 15.7176 63.3221 17.8311V23.3355H64.5066C64.9014 23.3355 65.2034 23.5678 65.4124 24.0323C65.6446 24.4968 65.7608 25.1355 65.7608 25.9484C65.7608 26.7613 65.5517 27.5625 65.1337 28.3522C64.7388 29.1419 64.1931 29.5367 63.4963 29.5367C62.2421 29.5367 61.2318 29.1999 60.4654 28.5264C60.117 28.2477 59.8499 27.9109 59.6641 27.5161C58.5957 28.8632 56.9351 29.5367 54.6823 29.5367C52.9868 29.5367 51.5584 28.9328 50.3972 27.7251C49.2359 26.5174 48.6553 25.089 48.6553 23.44C48.6553 19.6543 50.9197 17.7614 55.4487 17.7614H57.3648V17.413C57.3648 16.8092 57.2603 16.426 57.0512 16.2634C56.8654 16.0776 56.4125 15.9847 55.6926 15.9847C54.81 15.9847 53.5558 16.1705 51.93 16.5421ZM54.7171 22.9523C54.7171 23.4633 54.8565 23.8581 55.1352 24.1368C55.4139 24.3923 55.7622 24.52 56.1803 24.52C56.6216 24.52 57.0164 24.3458 57.3648 23.9974V21.3149H56.3893C55.2745 21.3149 54.7171 21.8607 54.7171 22.9523Z" fill="white"/>
<path d="M46.5837 28.9097C46.5837 29.1188 45.3992 29.2233 43.0302 29.2233C41.1722 29.2 40.2432 29.1071 40.2432 28.9446V5.21984C40.2432 4.87146 41.3696 4.69727 43.6225 4.69727C45.5966 4.76694 46.5837 4.88307 46.5837 5.04565V28.9097Z" fill="white"/>
<path d="M24.4408 16.5421C23.7905 15.3808 23.4653 14.4402 23.4653 13.7202C23.4653 12.977 23.6627 12.5009 24.0576 12.2919C25.3814 11.7112 27.193 11.4209 29.4923 11.4209C31.8149 11.4209 33.4522 11.9667 34.4045 13.0583C35.3567 14.1267 35.8328 15.7176 35.8328 17.8311V23.3355H37.0173C37.4122 23.3355 37.7141 23.5678 37.9231 24.0323C38.1554 24.4968 38.2715 25.1355 38.2715 25.9484C38.2715 26.7613 38.0625 27.5625 37.6444 28.3522C37.2496 29.1419 36.7038 29.5367 36.007 29.5367C34.7529 29.5367 33.7426 29.1999 32.9761 28.5264C32.6277 28.2477 32.3607 27.9109 32.1748 27.5161C31.1065 28.8632 29.4459 29.5367 27.193 29.5367C25.4976 29.5367 24.0692 28.9328 22.9079 27.7251C21.7467 26.5174 21.166 25.089 21.166 23.44C21.166 19.6543 23.4305 17.7614 27.9594 17.7614H29.8755V17.413C29.8755 16.8092 29.771 16.426 29.562 16.2634C29.3762 16.0776 28.9233 15.9847 28.2033 15.9847C27.3207 15.9847 26.0666 16.1705 24.4408 16.5421ZM27.2278 22.9523C27.2278 23.4633 27.3672 23.8581 27.6459 24.1368C27.9246 24.3923 28.273 24.52 28.691 24.52C29.1323 24.52 29.5272 24.3458 29.8755 23.9974V21.3149H28.9001C27.7853 21.3149 27.2278 21.8607 27.2278 22.9523Z" fill="white"/>
<path d="M18.9519 28.5958C18.9519 28.9907 17.779 29.1881 15.4333 29.1881C13.0875 29.1881 11.9146 28.9907 11.9146 28.5958V20.5831H7.03729V28.5958C7.03729 28.9907 5.86441 29.1881 3.51865 29.1881C1.17288 29.1881 0 28.9907 0 28.5958V5.4982C0 5.01047 1.17288 4.7666 3.51865 4.7666C5.86441 4.7666 7.03729 5.01047 7.03729 5.4982V13.6851H11.9146V5.56788C11.9146 5.24272 12.4953 5.01047 13.6565 4.87112C14.2604 4.82467 14.8526 4.80144 15.4333 4.80144L17.21 4.87112C18.3713 5.01047 18.9519 5.24272 18.9519 5.56788V28.5958Z" fill="white"/>
<path d="M124.612 12.4145C124.612 12.159 125.669 12.0312 127.783 12.0312C129.919 12.0312 131.023 12.1474 131.092 12.3796L133.601 20.6014L136.004 12.31C136.097 12.1242 136.817 12.0312 138.164 12.0312C141.253 12.0312 142.728 12.1822 142.589 12.4841L134.402 35.7908C134.379 35.9302 133.74 35.9998 132.486 35.9998C131.255 35.9998 130.105 35.9534 129.037 35.8605C127.968 35.7908 127.457 35.6979 127.504 35.5818L130.535 28.2658L124.612 12.4145Z" fill="white"/>
<path d="M111.88 29.1711C111.88 29.5195 110.788 29.6937 108.605 29.6937L106.654 29.5891C105.493 29.4962 104.912 29.3337 104.912 29.1014V5.72506C104.912 5.33023 106.073 5.13281 108.396 5.13281C110.718 5.13281 111.88 5.33023 111.88 5.72506V14.6436L116.13 5.72506C116.293 5.39991 117.222 5.23733 118.917 5.23733C122.006 5.23733 123.632 5.50442 123.794 6.0386C123.794 6.08505 123.783 6.1315 123.76 6.17796L117.698 17.1171L124.735 26.8369C124.735 26.8834 124.514 27.0808 124.073 27.4292C123.005 28.3582 121.751 29.0898 120.311 29.624C119.869 29.7866 119.428 29.8678 118.987 29.8678L118.151 29.7982C117.407 29.6124 116.827 29.1362 116.409 28.3698L112.437 20.7751H111.88V29.1711Z" fill="white"/>
<mask id="mask0_176_35" style="mask-type:luminance" maskUnits="userSpaceOnUse" x="69" y="0" width="30" height="36">
<path d="M88.5872 1.62837C88.609 2.04833 88.5581 2.46889 88.4366 2.8715L87.0078 7.6569C87.0078 7.6569 85.6702 12.0021 89.5995 12.253C91.8873 12.3987 93.5376 12.3747 94.5172 12.3294C95.9072 12.2645 97.2622 12.8443 98.1354 13.9271C98.1621 13.9603 98.19 13.9936 98.214 14.028C99.2951 15.4533 99.1996 17.4513 98.0268 18.8025C94.2612 23.1379 85.1692 32.623 83.0894 34.7847C82.8894 34.9963 82.6376 35.1522 82.3589 35.2367C82.0802 35.3213 81.7842 35.3317 81.5002 35.2669C81.0778 35.1649 80.65 34.8971 80.429 34.2758C80.287 33.8628 80.268 33.4175 80.3744 32.9939C80.96 30.553 81.6208 28.1889 81.8572 27.3565C82.0122 26.8236 82.0562 26.2647 81.9865 25.7141C81.8997 25.0595 81.6296 24.2768 80.9207 23.6566C80.3181 23.1383 79.5462 22.8592 78.7514 22.8722C76.5804 22.8924 74.2763 22.8804 73.1215 22.8722C72.6249 22.8722 72.1338 22.7669 71.6809 22.5632C71.2279 22.3596 70.8233 22.0622 70.4938 21.6907C70.0026 21.1262 69.6004 20.3074 69.5813 19.1352C69.5741 18.4266 69.7079 17.7237 69.9749 17.0672C70.2419 16.4108 70.6368 15.814 71.1367 15.3115C75.4638 10.9133 83.7061 2.58294 85.6615 0.606707C85.867 0.394967 86.1168 0.231348 86.3931 0.127604C86.6694 0.0238596 86.9653 -0.0174335 87.2594 0.00669128C87.8766 0.0672384 88.5201 0.422339 88.5872 1.62837Z" fill="white"/>
</mask>
<g mask="url(#mask0_176_35)">
<path d="M87.8814 -2.1516L65.4053 21.4473L69.7758 25.6058L92.2519 2.00691L87.8814 -2.1516Z" fill="#C80100"/>
<path d="M92.0073 1.7732L69.5312 25.3721L73.9018 29.5306L96.3779 5.93171L92.0073 1.7732Z" fill="#C80100"/>
<path d="M96.1323 5.69801L73.6562 29.2969L78.0268 33.4554L100.503 9.85652L96.1323 5.69801Z" fill="#ED0006"/>
<path d="M100.257 9.62379L77.7812 33.2227L82.1518 37.3812L104.628 13.7823L100.257 9.62379Z" fill="#ED0006"/>
</g>
</svg>
