<svg width="24" height="24" viewBox="0 0 24 24" fill="none" xmlns="http://www.w3.org/2000/svg">
<path d="M8.05542 15.8009C7.99478 15.6902 7.9055 15.5979 7.79691 15.5335C7.68832 15.4692 7.56443 15.4353 7.43822 15.4353H3.276C3.16553 15.4353 3.05662 15.4613 2.95808 15.5112C2.85953 15.5611 2.77412 15.6335 2.70874 15.7226C2.64337 15.8116 2.59988 15.9148 2.58178 16.0238C2.56368 16.1327 2.57148 16.2445 2.60456 16.3498C3.93014 20.5718 7.75354 23.7108 12.3588 23.9999V18.7246C11.4611 18.6131 10.6029 18.2898 9.85467 17.7815C9.10648 17.2732 8.48979 16.5943 8.05542 15.8009ZM16.35 2.60446C16.2446 2.57135 16.1329 2.56352 16.0239 2.58161C15.9149 2.5997 15.8117 2.64319 15.7227 2.70858C15.6336 2.77396 15.5612 2.8594 15.5113 2.95796C15.4614 3.05653 15.4354 3.16546 15.4354 3.27594V7.43811C15.4354 7.56431 15.4694 7.68819 15.5337 7.79677C15.598 7.90534 15.6904 7.99463 15.801 8.05527C16.5944 8.48967 17.2733 9.10637 17.7816 9.85456C18.2899 10.6027 18.6132 11.461 18.7247 12.3586H24.0001C23.7102 7.74341 20.562 3.92694 16.35 2.60446ZM18.7256 13.7661C18.4064 16.3512 16.3514 18.4062 13.7663 18.7254V23.9994C19.2579 23.6538 23.6535 19.2652 23.9996 13.7661H18.7256Z" fill="white"/>
<path d="M13.0624 0C5.84325 0 0 5.84227 0 13.0624C0 13.4511 0.315094 13.7662 0.703781 13.7662H13.0624C13.4511 13.7662 13.7662 13.4511 13.7662 13.0624V0.703781C13.7662 0.315094 13.4511 0 13.0624 0Z" fill="white" fill-opacity="0.2"/>
</svg>
