<svg width="11" height="13" viewBox="0 0 11 13" fill="none" xmlns="http://www.w3.org/2000/svg">
<path d="M4.41071 1.36607V11.3839C4.41071 11.7462 4.26679 12.0937 4.0106 12.3499C3.75441 12.6061 3.40695 12.75 3.04464 12.75H1.67857C1.31627 12.75 0.968801 12.6061 0.712613 12.3499C0.456425 12.0937 0.3125 11.7462 0.3125 11.3839V1.36607C0.3125 1.00377 0.456425 0.656301 0.712613 0.400113C0.968801 0.143925 1.31627 0 1.67857 0H3.04464C3.40695 0 3.75441 0.143925 4.0106 0.400113C4.26679 0.656301 4.41071 1.00377 4.41071 1.36607ZM8.96429 0H7.59821C7.23591 0 6.88844 0.143925 6.63226 0.400113C6.37607 0.656301 6.23214 1.00377 6.23214 1.36607V11.3839C6.23214 11.7462 6.37607 12.0937 6.63226 12.3499C6.88844 12.6061 7.23591 12.75 7.59821 12.75H8.96429C9.32659 12.75 9.67406 12.6061 9.93024 12.3499C10.1864 12.0937 10.3304 11.7462 10.3304 11.3839V1.36607C10.3304 1.00377 10.1864 0.656301 9.93024 0.400113C9.67406 0.143925 9.32659 0 8.96429 0Z" fill="white"/>
</svg>
