<svg width="20" height="36" viewBox="0 0 20 36" fill="none" xmlns="http://www.w3.org/2000/svg">
<path d="M16.1132 0H3.95139C1.88376 0 0.126953 1.6859 0.126953 3.75295V32.2513C0.126953 34.3184 1.84659 36 3.91421 36L16.0961 35.9868C18.1634 35.9868 19.8547 34.3049 19.8547 32.2376L19.8725 3.75095C19.8722 1.67646 18.1891 0 16.1132 0ZM8.27535 2.25005H11.8038C12.1138 2.25005 12.3663 2.50168 12.3663 2.8125C12.3663 3.12331 12.1138 3.37494 11.8038 3.37494H8.27535C8.20148 3.37497 8.12833 3.36044 8.06008 3.33218C7.99183 3.30393 7.92982 3.2625 7.87758 3.21026C7.82535 3.15803 7.78392 3.09602 7.75567 3.02777C7.72741 2.95951 7.71288 2.88636 7.71291 2.8125C7.71288 2.73863 7.72741 2.66548 7.75567 2.59722C7.78392 2.52897 7.82535 2.46696 7.87758 2.41473C7.92982 2.36249 7.99183 2.32106 8.06008 2.29281C8.12833 2.26455 8.20148 2.25003 8.27535 2.25005ZM6.15512 2.42905C6.36357 2.22089 6.74301 2.21803 6.95117 2.42905C7.0569 2.53519 7.11658 2.6787 7.1173 2.82851C7.1173 2.97491 7.05554 3.12074 6.95117 3.22511C6.84738 3.32947 6.70069 3.39095 6.55457 3.39095C6.4056 3.39095 6.26234 3.32947 6.15512 3.22511C6.05132 3.12102 5.99213 2.97491 5.99213 2.82851C5.99185 2.67925 6.05132 2.53313 6.15512 2.42905ZM9.92608 34.8851C8.99792 34.8851 8.24304 34.1297 8.24304 33.2018C8.24304 32.2736 8.99792 31.5185 9.92608 31.5185C10.8542 31.5185 11.6091 32.2736 11.6091 33.2018C11.6091 34.1297 10.854 34.8851 9.92608 34.8851ZM18.1265 30.3744H2.09564V5.34391H18.1265V30.3744Z" fill="#C80100"/>
</svg>
