<svg width="17" height="17" viewBox="0 0 17 17" fill="none" xmlns="http://www.w3.org/2000/svg">
<path d="M6.26079 16.8004C6.24879 16.8004 6.23667 16.7992 6.22467 16.7969C6.16359 16.7849 6.11247 16.7433 6.08835 16.6858L4.57323 13.0725C4.21575 13.1747 3.96471 13.148 3.80859 12.9918C3.65247 12.8357 3.62571 12.5847 3.72795 12.2272L0.114634 10.712C0.0863492 10.7001 0.0614182 10.6815 0.0420391 10.6577C0.02266 10.6339 0.00942849 10.6057 0.00351149 10.5756C-0.00240551 10.5455 -0.000826399 10.5145 0.00811 10.4851C0.0170464 10.4558 0.0330654 10.4291 0.0547539 10.4074L1.03479 9.42736C1.05802 9.40414 1.08695 9.38745 1.11868 9.37897C1.1504 9.37048 1.1838 9.37049 1.21551 9.379L4.73919 10.3263C5.50923 9.17452 6.62655 7.76728 7.91247 6.32968L0.201394 2.93608C0.173557 2.92384 0.149126 2.905 0.13022 2.88118C0.111314 2.85736 0.0985038 2.82929 0.0928999 2.79941C0.0872961 2.76952 0.0890681 2.73872 0.0980624 2.70967C0.107057 2.68062 0.123001 2.65421 0.144514 2.63272L1.42611 1.35112C1.47387 1.30336 1.54383 1.285 1.60887 1.30336L3.84807 1.93252L4.85151 0.929077C5.00763 0.772957 5.21007 0.680557 5.42151 0.668677C5.64099 0.656317 5.84355 0.731557 5.99212 0.880117C6.14079 1.0288 6.21591 1.23136 6.20367 1.45072C6.19191 1.66228 6.09951 1.86472 5.9434 2.02084L5.55279 2.41144L6.55287 2.6926L7.50279 1.74268C7.65891 1.58656 7.86135 1.49416 8.07279 1.48228C8.29215 1.47004 8.49483 1.54516 8.64339 1.69372C8.79208 1.8424 8.8672 2.04496 8.85495 2.26432C8.84319 2.47588 8.75079 2.67832 8.59467 2.83444L8.25759 3.17152L10.3612 3.76264C10.3631 3.76312 10.3649 3.76372 10.3667 3.76432L10.3704 3.76552C11.8738 2.30968 13.2332 1.21336 14.3057 0.592237C14.8287 0.289357 15.281 0.100597 15.65 0.030997C16.0565 -0.045683 16.3673 0.020077 16.5736 0.226357C16.7799 0.432637 16.8456 0.743557 16.7688 1.15036C16.6991 1.5196 16.5101 1.972 16.2071 2.49532C15.5859 3.56776 14.4899 4.92676 13.0346 6.42964L13.0358 6.43324C13.0364 6.43504 13.0368 6.43696 13.0374 6.43876L13.6286 8.54224L13.9656 8.20516C14.1218 8.04904 14.3242 7.95664 14.5358 7.94488C14.7552 7.93264 14.9578 8.00788 15.1065 8.15644C15.4074 8.4574 15.3856 8.96908 15.0576 9.29704L14.1077 10.247L14.3888 11.247L14.7794 10.8564C14.9355 10.7003 15.1379 10.6079 15.3495 10.5962C15.5688 10.5838 15.7715 10.6592 15.9202 10.8077C16.2212 11.1087 16.1993 11.6204 15.8714 11.9483L14.8679 12.9518L15.4972 15.191C15.5154 15.256 15.4972 15.326 15.4494 15.3737L14.1676 16.6556C14.1461 16.677 14.1197 16.693 14.0906 16.702C14.0616 16.711 14.0308 16.7127 14.0009 16.7072C13.9403 16.6958 13.8892 16.6552 13.8642 16.5987L10.4708 8.8876C9.03292 10.1736 7.62555 11.2911 6.47403 12.0609L7.42119 15.5844C7.43859 15.649 7.42011 15.7179 7.37283 15.7652L6.39279 16.7452C6.35751 16.7811 6.30987 16.8004 6.26079 16.8004Z" fill="#15193C"/>
</svg>
