<svg width="18" height="17" viewBox="0 0 18 17" fill="none" xmlns="http://www.w3.org/2000/svg">
<path d="M7.02642 1.71661e-05C7.01442 1.71661e-05 7.0023 0.00121689 6.9903 0.00349617C6.92922 0.0154972 6.8781 0.0571365 6.85398 0.114616L5.33886 3.72794C4.98138 3.6257 4.73034 3.65246 4.57422 3.80858C4.4181 3.9647 4.39134 4.21574 4.49358 4.57322L0.880259 6.08846C0.851974 6.10032 0.827043 6.11896 0.807664 6.14273C0.788285 6.1665 0.775053 6.19468 0.769136 6.22478C0.763219 6.25487 0.764799 6.28596 0.773735 6.3153C0.782671 6.34464 0.79869 6.37133 0.820379 6.39302L1.80042 7.37306C1.82365 7.39627 1.85258 7.41296 1.8843 7.42145C1.91602 7.42994 1.94942 7.42993 1.98114 7.42142L5.50482 6.47414C6.27486 7.6259 7.39218 9.03314 8.6781 10.4707L0.967019 13.8643C0.939182 13.8766 0.914751 13.8954 0.895845 13.9192C0.876939 13.9431 0.864129 13.9711 0.858525 14.001C0.852921 14.0309 0.854693 14.0617 0.863687 14.0907C0.872682 14.1198 0.888626 14.1462 0.910139 14.1677L2.19174 15.4493C2.2395 15.4971 2.30946 15.5154 2.3745 15.4971L4.6137 14.8679L5.61714 15.8713C5.77326 16.0275 5.9757 16.1199 6.18714 16.1317C6.40662 16.1441 6.60918 16.0689 6.75774 15.9203C6.90642 15.7716 6.98154 15.5691 6.9693 15.3497C6.95754 15.1381 6.86514 14.9357 6.70902 14.7796L6.31842 14.389L7.3185 14.1078L8.26842 15.0577C8.42454 15.2139 8.62698 15.3063 8.83842 15.3181C9.05778 15.3304 9.26046 15.2553 9.40902 15.1067C9.5577 14.958 9.63282 14.7555 9.62058 14.5361C9.60882 14.3245 9.51642 14.1221 9.3603 13.966L9.02322 13.6289L11.1268 13.0378C11.1287 13.0373 11.1305 13.0367 11.1323 13.0361L11.1361 13.0349C12.6394 14.4907 13.9988 15.5871 15.0713 16.2082C15.5943 16.5111 16.0466 16.6998 16.4156 16.7694C16.8221 16.8461 17.1329 16.7803 17.3392 16.5741C17.5455 16.3678 17.6113 16.0569 17.5345 15.6501C17.4647 15.2808 17.2757 14.8284 16.9727 14.3051C16.3515 13.2327 15.2555 11.8737 13.8002 10.3708L13.8014 10.3672C13.802 10.3654 13.8025 10.3635 13.8031 10.3617L14.3942 8.25818L14.7313 8.59526C14.8874 8.75138 15.0898 8.84378 15.3014 8.85554C15.5209 8.86778 15.7234 8.79254 15.8721 8.64398C16.1731 8.34302 16.1512 7.83134 15.8233 7.50338L14.8733 6.55346L15.1544 5.55338L15.545 5.94398C15.7011 6.1001 15.9035 6.1925 16.1151 6.20426C16.3345 6.21662 16.5371 6.14126 16.6858 5.9927C16.9868 5.69174 16.9649 5.18006 16.637 4.8521L15.6335 3.84866L16.2628 1.60946C16.2811 1.54442 16.2628 1.47446 16.2151 1.4267L14.9332 0.144857C14.9117 0.123365 14.8853 0.107435 14.8563 0.098444C14.8272 0.0894527 14.7964 0.0876732 14.7665 0.093256C14.7059 0.104656 14.6548 0.145218 14.6299 0.201736L11.2364 7.91282C9.79854 6.62678 8.39118 5.50934 7.23966 4.73954L8.18682 1.21598C8.20422 1.15142 8.18574 1.08254 8.13846 1.03526L7.15842 0.0552158C7.12314 0.0193367 7.0755 1.71661e-05 7.02642 1.71661e-05Z" fill="#15193C"/>
</svg>
