<svg width="13" height="12" viewBox="0 0 13 12" fill="none" xmlns="http://www.w3.org/2000/svg">
<path d="M11.9569 0.213219L11.9199 0.0908462L11.7955 0.0618086C11.7847 0.0593197 11.5279 0 11.206 0C10.7335 0 10.3556 0.12818 10.1134 0.370852L8.06706 2.41717L2.28775 1.40335L1.13371 2.55738L5.6922 4.79245L3.50567 6.97898C3.33393 7.15072 3.05849 7.50249 2.93529 7.66261L0.535536 7.79369L0 8.82038L2.62085 9.39989L3.17257 12L4.18847 11.4487L4.36726 9.19829C4.53733 9.04231 4.99613 8.62002 5.21059 8.40514L7.25277 6.36256L9.47912 10.9028L10.6332 9.74876L9.62348 3.99309L11.6793 1.93722C12.0344 1.58172 12.1514 0.85661 11.9573 0.213634L11.9569 0.213219Z" fill="black" fill-opacity="0.5"/>
</svg>
