<svg width="18" height="18" viewBox="0 0 18 18" fill="none" xmlns="http://www.w3.org/2000/svg">
<path d="M10.6622 17.0634C10.2818 17.0634 9.94181 16.7854 9.61163 16.5154C9.40987 16.3502 9.13331 16.1241 8.99981 16.1241C8.8665 16.1241 8.58994 16.3502 8.38819 16.5154C8.0265 16.8111 7.61625 17.1472 7.16456 17.0437C6.69844 16.9378 6.47025 16.4477 6.26887 16.0155C6.16837 15.7993 6.01613 15.4725 5.90794 15.4202C5.79319 15.3641 5.43694 15.4506 5.20125 15.5072C4.74244 15.6176 4.22269 15.7421 3.85519 15.4491C3.48638 15.1545 3.49294 14.6181 3.49913 14.145C3.50213 13.9037 3.50662 13.5392 3.429 13.4417C3.35231 13.3457 2.99738 13.2697 2.76244 13.2195C2.29781 13.1201 1.77169 13.0074 1.56544 12.5799C1.36219 12.159 1.59938 11.6816 1.80825 11.2605C1.91681 11.0422 2.08069 10.7121 2.052 10.5855C2.02613 10.4721 1.74375 10.2529 1.557 10.1077C1.17881 9.81449 0.75 9.48149 0.75 8.99999C0.75 8.51849 1.17881 8.18568 1.55719 7.89205C1.74394 7.74712 2.02631 7.52793 2.05219 7.4143C2.08087 7.28774 1.917 6.95755 1.80862 6.73912C1.59956 6.31799 1.36256 5.8408 1.566 5.41949C1.77225 4.99218 2.29837 4.87949 2.76281 4.78012C2.99775 4.72987 3.35269 4.65393 3.42919 4.55812C3.50719 4.46043 3.50269 4.09574 3.49969 3.85443C3.49369 3.38137 3.48712 2.84512 3.85575 2.55055C4.22306 2.2573 4.74319 2.38218 5.20181 2.49243C5.43787 2.54905 5.79375 2.63474 5.90831 2.57962C6.01669 2.5273 6.16875 2.20068 6.26944 1.9843C6.47062 1.55193 6.69863 1.06199 7.16475 0.956053C7.61588 0.853678 8.02688 1.18855 8.38837 1.48443C8.59031 1.64962 8.86687 1.87574 9.00019 1.87574C9.1335 1.87574 9.41006 1.64962 9.61181 1.48462C9.97369 1.18855 10.3837 0.852928 10.8356 0.956053C11.3016 1.06199 11.5298 1.55212 11.7311 1.98449C11.8318 2.20068 11.9839 2.52749 12.0922 2.5798C12.2072 2.63512 12.5629 2.54924 12.7986 2.49262C13.2574 2.38237 13.7773 2.25749 14.1448 2.55074C14.5136 2.8453 14.5071 3.38155 14.5009 3.8548C14.4979 4.09612 14.4934 4.4608 14.571 4.55812C14.6477 4.65393 15.0026 4.73005 15.2376 4.7803C15.7022 4.87968 16.2283 4.99218 16.4346 5.41968C16.6378 5.8408 16.4006 6.31818 16.1918 6.7393C16.0832 6.95774 15.9193 7.28774 15.948 7.4143C15.9739 7.52793 16.2562 7.74712 16.443 7.89205C16.8212 8.18568 17.25 8.51849 17.25 8.99999C17.25 9.48149 16.8212 9.8143 16.4428 10.1079C16.2561 10.2529 15.9737 10.4719 15.9478 10.5859C15.9191 10.7124 16.083 11.0424 16.1914 11.2609C16.4004 11.682 16.6374 12.1592 16.434 12.5805C16.2278 13.0078 15.7016 13.1205 15.2372 13.2197C15.0022 13.2701 14.6473 13.3461 14.5706 13.4419C14.4928 13.5396 14.4973 13.9042 14.5003 14.1456C14.5063 14.6184 14.5129 15.1547 14.1442 15.4492C13.7769 15.7425 13.2568 15.6174 12.7982 15.5074C12.5621 15.4507 12.2062 15.3647 12.0917 15.4204C11.9833 15.4725 11.8313 15.7993 11.7306 16.0155C11.5294 16.4481 11.3014 16.938 10.8352 17.0439C10.7767 17.0572 10.719 17.0634 10.6622 17.0634ZM5.79187 14.6531C5.94731 14.6531 6.09638 14.6782 6.23381 14.7444C6.58313 14.9128 6.76912 15.3124 6.94894 15.6988C7.038 15.8901 7.22325 16.2879 7.33069 16.3123C7.43062 16.3299 7.75687 16.0624 7.91325 15.9345C8.25037 15.6589 8.59875 15.3739 8.99981 15.3739C9.40088 15.3739 9.74944 15.6591 10.0864 15.9345C10.2428 16.0624 10.5592 16.3247 10.6693 16.3123C10.7764 16.2877 10.9618 15.8901 11.0507 15.6988C11.2303 15.3124 11.4163 14.9132 11.7658 14.7444C12.1213 14.5729 12.5541 14.6773 12.9731 14.778C13.1747 14.8264 13.5949 14.9274 13.6759 14.8629C13.7582 14.7973 13.7528 14.3632 13.7501 14.1547C13.7447 13.725 13.7391 13.2808 13.9843 12.9737C14.2281 12.6684 14.661 12.5758 15.0799 12.4862C15.285 12.4423 15.7116 12.351 15.7582 12.2544C15.8018 12.1639 15.6109 11.7791 15.5192 11.5942C15.327 11.2071 15.1281 10.8066 15.2162 10.4196C15.3015 10.0442 15.6478 9.7753 15.9825 9.51543C16.1636 9.37518 16.5 9.11418 16.5 8.99999C16.5 8.8858 16.1636 8.6248 15.9829 8.48437C15.648 8.22449 15.3017 7.9558 15.2164 7.58024C15.1284 7.19324 15.3274 6.79274 15.5196 6.40555C15.6113 6.22068 15.8023 5.83612 15.7586 5.74537C15.7119 5.64862 15.2854 5.55749 15.0804 5.51362C14.6616 5.42399 14.2284 5.33137 13.9847 5.0263C13.7396 4.71937 13.7452 4.27499 13.7507 3.84543C13.7533 3.63693 13.7587 3.20268 13.6764 3.13705C13.5958 3.07255 13.1754 3.17362 12.9735 3.22199C12.5546 3.32268 12.1219 3.42693 11.7662 3.25537C11.4169 3.0868 11.2309 2.68743 11.0511 2.30118C10.962 2.10993 10.7769 1.71205 10.6693 1.68768C10.5662 1.66987 10.2429 1.93762 10.0866 2.0653C9.74962 2.34112 9.40125 2.62612 9.00019 2.62612C8.59912 2.62612 8.25075 2.34093 7.91363 2.0653C7.75725 1.93743 7.431 1.67099 7.33069 1.68749C7.22344 1.71187 7.038 2.10974 6.94913 2.30099C6.76931 2.68724 6.5835 3.08662 6.23419 3.25518C5.87869 3.42655 5.44594 3.32268 5.02669 3.2218C4.82513 3.17324 4.40456 3.07237 4.32394 3.13668C4.24163 3.20249 4.24706 3.63655 4.24969 3.84505C4.25513 4.2748 4.26075 4.71918 4.0155 5.02593C3.77175 5.33118 3.33881 5.4238 2.91994 5.51343C2.71481 5.5573 2.28825 5.64862 2.24156 5.74518C2.19806 5.83574 2.38894 6.22049 2.48062 6.40537C2.67281 6.79255 2.87175 7.19305 2.78362 7.58005C2.69831 7.95543 2.352 8.2243 2.01731 8.48418C1.83637 8.6248 1.5 8.8858 1.5 8.99999C1.5 9.11418 1.83638 9.37537 2.01713 9.51562C2.352 9.77549 2.69831 10.044 2.78362 10.4196C2.87156 10.8066 2.67263 11.2069 2.48044 11.5942C2.38875 11.7791 2.19769 12.1637 2.24138 12.2544C2.28806 12.3514 2.71462 12.4425 2.91975 12.4864C3.33844 12.576 3.77156 12.6686 4.01531 12.9739C4.26038 13.2808 4.25475 13.725 4.24931 14.1547C4.24669 14.3632 4.24125 14.7975 4.32356 14.8631C4.40419 14.9267 4.82456 14.8266 5.0265 14.778C5.28319 14.7161 5.5455 14.6531 5.79187 14.6531ZM6.64013 11.8901L11.8901 6.64012C11.9259 6.60552 11.9545 6.56414 11.9742 6.51839C11.9938 6.47264 12.0042 6.42343 12.0046 6.37364C12.005 6.32385 11.9955 6.27447 11.9767 6.22838C11.9578 6.1823 11.93 6.14043 11.8948 6.10522C11.8596 6.07001 11.8177 6.04216 11.7716 6.02331C11.7255 6.00445 11.6761 5.99496 11.6263 5.9954C11.5766 5.99583 11.5273 6.00617 11.4816 6.02583C11.4358 6.04548 11.3945 6.07405 11.3599 6.10987L6.10987 11.3599C6.07406 11.3945 6.04549 11.4358 6.02584 11.4816C6.00618 11.5273 5.99584 11.5765 5.99541 11.6263C5.99497 11.6761 6.00446 11.7255 6.02332 11.7716C6.04217 11.8177 6.07002 11.8596 6.10523 11.8948C6.14044 11.93 6.18231 11.9578 6.22839 11.9767C6.27448 11.9955 6.32386 12.005 6.37365 12.0046C6.42344 12.0042 6.47265 11.9938 6.5184 11.9742C6.56415 11.9545 6.60553 11.9259 6.64013 11.8901ZM7.125 8.43749C6.40144 8.43749 5.8125 7.84874 5.8125 7.12499C5.8125 6.40124 6.40144 5.81249 7.125 5.81249C7.84856 5.81249 8.4375 6.40124 8.4375 7.12499C8.4375 7.84874 7.84856 8.43749 7.125 8.43749ZM7.125 6.56249C6.81488 6.56249 6.5625 6.81487 6.5625 7.12499C6.5625 7.43512 6.81488 7.68749 7.125 7.68749C7.43512 7.68749 7.6875 7.43512 7.6875 7.12499C7.6875 6.81487 7.43512 6.56249 7.125 6.56249ZM10.875 12.1875C10.1514 12.1875 9.5625 11.5986 9.5625 10.875C9.5625 10.1514 10.1514 9.56249 10.875 9.56249C11.5986 9.56249 12.1875 10.1514 12.1875 10.875C12.1875 11.5986 11.5986 12.1875 10.875 12.1875ZM10.875 10.3125C10.5649 10.3125 10.3125 10.5649 10.3125 10.875C10.3125 11.1851 10.5649 11.4375 10.875 11.4375C11.1851 11.4375 11.4375 11.1851 11.4375 10.875C11.4375 10.5649 11.1851 10.3125 10.875 10.3125Z" fill="black"/>
</svg>
