<svg width="36" height="36" viewBox="0 0 36 36" fill="none" xmlns="http://www.w3.org/2000/svg">
<path d="M34.73 20.6183L33.4149 18.5972C33.2992 18.4195 33.2376 18.2119 33.2376 17.9998C33.2376 17.7877 33.2992 17.5801 33.4149 17.4024L34.7306 15.3805C35.9284 13.5365 35.1178 11.0663 33.0738 10.2852L30.8226 9.42264C30.6244 9.3467 30.4526 9.21495 30.3278 9.04333C30.203 8.87172 30.1306 8.6676 30.1195 8.45571L29.9956 6.04808C29.8834 3.85891 27.7824 2.32962 25.6598 2.89761L23.3321 3.52374C22.9152 3.63581 22.4669 3.4916 22.1953 3.15467L20.6793 1.27944C19.2995 -0.428086 16.6956 -0.425273 15.32 1.28064L13.8039 3.15481C13.6707 3.31974 13.4924 3.44243 13.2907 3.50795C13.0891 3.57347 12.8727 3.579 12.668 3.52388L10.3402 2.89817C8.2234 2.32801 6.11615 3.85624 6.00372 6.04822L5.87983 8.45627C5.86888 8.66805 5.79671 8.8721 5.67206 9.04366C5.54742 9.21523 5.37566 9.34692 5.17762 9.42278L2.92637 10.2846C0.879796 11.0683 0.0718398 13.5396 1.27024 15.3822L2.58437 17.4017C2.70001 17.5796 2.76163 17.7872 2.76177 17.9994C2.7619 18.2116 2.70056 18.4192 2.58515 18.5973L1.27024 20.6184C0.0724024 22.4569 0.87853 24.9326 2.92637 25.7152L5.17762 26.5773C5.37565 26.6533 5.54739 26.7851 5.67203 26.9567C5.79667 27.1283 5.86885 27.3324 5.87983 27.5442L6.00372 29.9523C6.11594 32.1411 8.21869 33.6713 10.3402 33.1023L12.668 32.4759C13.0841 32.3641 13.5308 32.508 13.8047 32.8461L15.3201 34.7203C16.6971 36.4244 19.2969 36.4287 20.6801 34.7211L22.1955 32.8461C22.3288 32.6813 22.5071 32.5586 22.7087 32.4929C22.9102 32.4272 23.1266 32.4213 23.3314 32.4759L25.6614 33.1031C27.7744 33.6695 29.8832 32.1473 29.9956 29.9522L30.1195 27.5449C30.1305 27.3329 30.2028 27.1287 30.3276 26.9569C30.4524 26.7851 30.6243 26.6533 30.8226 26.5772L33.0738 25.7159C35.1197 24.9325 35.9285 22.461 34.73 20.6183ZM13.2478 11.6683C14.5436 11.6683 15.5977 12.7225 15.5977 14.0182C15.5977 15.3141 14.5435 16.3681 13.2478 16.3681C11.9519 16.3681 10.8979 15.314 10.8979 14.0182C10.8979 12.7225 11.952 11.6683 13.2478 11.6683ZM21.8642 24.9846C20.5683 24.9846 19.5143 23.9305 19.5143 22.6347C19.5143 21.3389 20.5684 20.2848 21.8642 20.2848C23.16 20.2848 24.2141 21.3389 24.2141 22.6347C24.2141 23.9306 23.16 24.9846 21.8642 24.9846ZM23.8699 13.6741L12.9036 24.6404C12.4446 25.0993 11.7011 25.0993 11.2421 24.6404C10.7832 24.1814 10.7832 23.4378 11.2421 22.9789L22.2084 12.0126C22.6673 11.5537 23.411 11.5537 23.8699 12.0126C24.3289 12.4715 24.3289 13.2151 23.8699 13.6741Z" fill="#172B85"/>
</svg>
