<svg width="16" height="17" viewBox="0 0 16 17" fill="none" xmlns="http://www.w3.org/2000/svg">
<path d="M14.7895 12.2453L13.8276 10.8615C13.6963 10.6734 13.6257 10.4497 13.6251 10.2203V6.24902C13.6251 4.75718 13.0325 3.32644 11.9776 2.27155C10.9227 1.21666 9.49196 0.624023 8.00012 0.624023C6.50828 0.624023 5.07754 1.21666 4.02264 2.27155C2.96775 3.32644 2.37512 4.75718 2.37512 6.24902V10.2203C2.37458 10.4497 2.30392 10.6734 2.17262 10.8615L1.21075 12.2453C1.0651 12.4066 0.96933 12.6068 0.93501 12.8214C0.900689 13.0361 0.92929 13.2561 1.01735 13.4548C1.10542 13.6535 1.24917 13.8225 1.43124 13.9413C1.6133 14.06 1.82587 14.1235 2.04325 14.124H5.24387C5.37297 14.7598 5.71791 15.3314 6.22023 15.742C6.72255 16.1526 7.35136 16.3768 8.00012 16.3768C8.64888 16.3768 9.2777 16.1526 9.78002 15.742C10.2823 15.3314 10.6273 14.7598 10.7564 14.124H13.957C14.1744 14.1235 14.3869 14.06 14.569 13.9413C14.7511 13.8225 14.8948 13.6535 14.9829 13.4548C15.071 13.2561 15.0996 13.0361 15.0652 12.8214C15.0309 12.6068 14.9351 12.4066 14.7895 12.2453ZM8.00012 15.249C7.65196 15.248 7.31263 15.1394 7.02865 14.938C6.74466 14.7366 6.52992 14.4523 6.41387 14.124H9.58637C9.47032 14.4523 9.25558 14.7366 8.97159 14.938C8.68761 15.1394 8.34828 15.248 8.00012 15.249ZM2.04325 12.999C2.06867 12.9754 2.09132 12.949 2.11075 12.9203L3.09512 11.5028C3.35772 11.1266 3.49903 10.6791 3.50012 10.2203V6.24902C3.50012 5.05555 3.97423 3.91096 4.81814 3.06704C5.66205 2.22313 6.80665 1.74902 8.00012 1.74902C9.19359 1.74902 10.3382 2.22313 11.1821 3.06704C12.026 3.91096 12.5001 5.05555 12.5001 6.24902V10.2203C12.5012 10.6791 12.6425 11.1266 12.9051 11.5028L13.8895 12.9203C13.9089 12.949 13.9316 12.9754 13.957 12.999H2.04325Z" fill="#1A1A1A"/>
</svg>
