<svg width="44" height="54" viewBox="0 0 44 54" fill="none" xmlns="http://www.w3.org/2000/svg">
<mask id="mask0_176_454" style="mask-type:luminance" maskUnits="userSpaceOnUse" x="0" y="0" width="44" height="54">
<path d="M28.4563 3.2515C28.489 3.88026 28.4127 4.50994 28.2308 5.11273L26.0916 12.2775C26.0916 12.2775 24.089 18.7832 29.972 19.1589C33.3972 19.377 35.8681 19.341 37.3348 19.2732C39.4159 19.176 41.4447 20.0442 42.752 21.6653C42.7921 21.7151 42.8337 21.7649 42.8697 21.8164C44.4883 23.9504 44.3454 26.9419 42.5894 28.9648C36.9515 35.4559 23.3389 49.6572 20.225 52.8937C19.9255 53.2106 19.5485 53.4438 19.1312 53.5705C18.7139 53.6971 18.2708 53.7127 17.8456 53.6157C17.2132 53.4629 16.5726 53.062 16.2417 52.1317C16.0291 51.5134 16.0007 50.8467 16.1599 50.2125C17.0367 46.5579 18.0262 43.0184 18.38 41.7721C18.6121 40.9743 18.678 40.1373 18.5736 39.3131C18.4437 38.333 18.0392 37.1611 16.9778 36.2325C16.0758 35.4565 14.92 35.0386 13.7299 35.0581C10.4796 35.0883 7.02982 35.0704 5.30086 35.0581C4.55722 35.0581 3.82204 34.9004 3.14386 34.5955C2.46568 34.2906 1.85992 33.8454 1.36659 33.2892C0.63121 32.4439 0.0290171 31.2181 0.000419024 29.463C-0.0104396 28.4021 0.189844 27.3496 0.589623 26.3668C0.989401 25.384 1.5807 24.4904 2.32912 23.7381C8.8078 17.1531 21.1483 4.6807 24.0759 1.72185C24.3836 1.40483 24.7577 1.15985 25.1713 1.00453C25.585 0.849199 26.0279 0.787375 26.4683 0.823495C27.3924 0.914147 28.3558 1.44581 28.4563 3.2515Z" fill="white"/>
</mask>
<g mask="url(#mask0_176_454)">
<path d="M27.3996 -2.40682L-6.25195 32.9258L0.291686 39.152L33.9432 3.81936L27.3996 -2.40682Z" fill="#C80100"/>
<path d="M33.5773 3.46916L-0.0742188 38.8018L6.46942 45.0279L40.121 9.69534L33.5773 3.46916Z" fill="#C80100"/>
<path d="M39.7531 9.34513L6.10156 44.6777L12.6452 50.9039L46.2968 15.5713L39.7531 9.34513Z" fill="#ED0006"/>
<path d="M45.9289 15.2221L12.2773 50.5547L18.821 56.7809L52.4725 21.4483L45.9289 15.2221Z" fill="#ED0006"/>
</g>
</svg>
