<svg width="9" height="12" viewBox="0 0 9 12" fill="none" xmlns="http://www.w3.org/2000/svg">
<path d="M2.48509 10.5026C2.90534 10.4029 3.16523 9.98144 3.06558 9.56119C2.96593 9.14094 2.54446 8.88104 2.12421 8.9807C1.70396 9.08035 1.44407 9.50181 1.54372 9.92206C1.64337 10.3423 2.06484 10.6022 2.48509 10.5026Z" fill="#172B85"/>
<path d="M2.30367 8.77717C2.4766 8.77419 2.64699 8.81902 2.79607 8.90671C2.94514 8.9944 3.06711 9.12155 3.14853 9.27414C3.27853 9.1668 3.3844 9.03321 3.45921 8.88213C3.53403 8.73105 3.5761 8.56587 3.58268 8.39741C3.60131 8.00693 3.49986 7.62013 3.292 7.28906C3.06865 6.93556 2.86911 6.56758 2.69469 6.18756C2.39681 5.54092 2.18224 4.85909 2.05612 4.1584C2.03362 4.03463 2.00924 3.91554 1.98298 3.80302C1.93862 3.60761 1.82919 3.43307 1.67261 3.30802C1.51604 3.18297 1.32163 3.11482 1.12125 3.11476C1.08093 3.11476 1.04436 3.11851 1.00498 3.12226L0.989974 3.1232C0.951192 3.12926 0.91278 3.1375 0.874919 3.14786V2.765C1.0821 2.76199 1.28131 2.68462 1.43622 2.54701C1.59113 2.4094 1.69143 2.2207 1.71884 2.01532L1.8564 0.974018C1.88621 0.747228 1.82487 0.517872 1.68583 0.33624C1.54679 0.154609 1.34139 0.0355268 1.11469 0.00510552C1.07812 0.000417089 0.31859 -0.0911012 0.145117 0.747754L0.00727744 1.78981C-0.0209262 2.00573 0.0334731 2.22434 0.159584 2.40187C0.285695 2.57939 0.474209 2.70273 0.687382 2.74718V3.21856C0.464844 3.32547 0.288303 3.50902 0.190133 3.73555C0.0919638 3.96208 0.0787447 4.21641 0.1529 4.4519L1.58287 9.09908C1.67315 8.99717 1.78416 8.91572 1.90847 8.8602C2.03279 8.80469 2.16753 8.77638 2.30367 8.77717ZM8.75684 9.33322C8.74005 9.19042 8.69441 9.05253 8.62268 8.92793C8.55095 8.80332 8.45462 8.6946 8.33957 8.60839C8.22569 8.51991 8.09527 8.45508 7.95598 8.41772C7.81669 8.38036 7.67134 8.37123 7.52847 8.39084L3.64925 8.90845C3.55898 9.12401 3.41303 9.3117 3.22636 9.4523C3.25756 9.54733 3.27339 9.64672 3.27324 9.74674C3.27297 10.0038 3.17074 10.2503 2.98898 10.4321C2.80722 10.6139 2.56076 10.7162 2.30367 10.7166C2.27179 10.7166 2.24085 10.7147 2.2099 10.7119V11.1095H8.05732C8.05732 11.1095 8.9154 10.7436 8.75684 9.33322ZM2.2099 11.2967V11.4271C2.21005 11.579 2.27046 11.7246 2.37788 11.832C2.48529 11.9394 2.63093 11.9999 2.78283 12H7.55097C7.70273 11.9997 7.84816 11.9391 7.95538 11.8318C8.0626 11.7244 8.12286 11.5788 8.12296 11.4271V11.2911L8.11452 11.2967H2.2099Z" fill="#172B85"/>
</svg>
