<svg width="18" height="19" viewBox="0 0 18 19" fill="none" xmlns="http://www.w3.org/2000/svg">
<path d="M15.75 4.98438C13.2525 4.73687 10.74 4.60938 8.235 4.60938C6.75 4.60938 5.265 4.68438 3.78 4.83438L2.25 4.98438" stroke="#292D32" stroke-linecap="round" stroke-linejoin="round"/>
<path d="M6.375 4.2275L6.54 3.245C6.66 2.5325 6.75 2 8.0175 2H9.9825C11.25 2 11.3475 2.5625 11.46 3.2525L11.625 4.2275" stroke="#292D32" stroke-linecap="round" stroke-linejoin="round"/>
<path d="M14.1374 7.35547L13.6499 14.908C13.5674 16.0855 13.4999 17.0005 11.4074 17.0005H6.59243C4.49993 17.0005 4.43243 16.0855 4.34993 14.908L3.86243 7.35547" stroke="#292D32" stroke-linecap="round" stroke-linejoin="round"/>
<path d="M7.74756 12.875H10.2451" stroke="#292D32" stroke-linecap="round" stroke-linejoin="round"/>
<path d="M7.125 9.875H10.875" stroke="#292D32" stroke-linecap="round" stroke-linejoin="round"/>
</svg>
