<svg width="19" height="19" viewBox="0 0 19 19" fill="none" xmlns="http://www.w3.org/2000/svg">
<path d="M16 4.98499C13.5025 4.73749 10.99 4.60999 8.485 4.60999C7 4.60999 5.515 4.68499 4.03 4.83499L2.5 4.98499" stroke="white" stroke-linecap="round" stroke-linejoin="round"/>
<path d="M6.625 4.2275L6.79 3.245C6.91 2.5325 7 2 8.2675 2H10.2325C11.5 2 11.5975 2.5625 11.71 3.2525L11.875 4.2275" stroke="white" stroke-linecap="round" stroke-linejoin="round"/>
<path d="M14.3874 7.35501L13.8999 14.9075C13.8174 16.085 13.7499 17 11.6574 17H6.84243C4.74993 17 4.68243 16.085 4.59993 14.9075L4.11243 7.35501" stroke="white" stroke-linecap="round" stroke-linejoin="round"/>
<path d="M7.99756 12.875H10.4951" stroke="white" stroke-linecap="round" stroke-linejoin="round"/>
<path d="M7.375 9.875H11.125" stroke="white" stroke-linecap="round" stroke-linejoin="round"/>
</svg>
