<svg width="19" height="16" viewBox="0 0 19 16" fill="none" xmlns="http://www.w3.org/2000/svg">
<path fill-rule="evenodd" clip-rule="evenodd" d="M14.0623 8.22178C13.2415 8.22178 12.4711 8.38739 11.8231 8.66819C14.0911 9.32339 15.6967 10.893 15.7399 12.729C16.9207 12.5778 18.1951 12.1314 18.1951 10.9146C18.1951 9.45298 16.3015 8.22178 14.0623 8.22178ZM14.0407 7.18498H14.0551C15.5887 7.18498 16.8415 5.93218 16.8415 4.40578C16.8396 3.66737 16.5454 2.95974 16.0233 2.4376C15.5011 1.91546 14.7935 1.62129 14.0551 1.61938C13.7527 1.61938 13.4647 1.66978 13.1911 1.75618C13.7052 2.51724 13.9787 3.41532 13.9759 4.33378C13.9847 5.29869 13.6817 6.24064 13.1119 7.01938C13.4071 7.12738 13.7167 7.18498 14.0407 7.18498ZM6.97027 8.66098C6.32227 8.38738 5.55187 8.22178 4.73827 8.22178C2.49907 8.22178 0.605469 9.45298 0.605469 10.9146C0.605469 12.1314 1.87267 12.5706 3.05347 12.729C3.08947 10.893 4.69507 9.32338 6.97027 8.66098ZM4.73827 7.18498H4.75987C5.08387 7.18498 5.39347 7.12738 5.68867 7.01938C5.11997 6.23966 4.81478 5.29887 4.81747 4.33378C4.81747 3.37618 5.10547 2.49058 5.60227 1.75618C5.32867 1.66978 5.04067 1.61938 4.73827 1.61938C4.00052 1.62129 3.29363 1.9157 2.77264 2.43804C2.25164 2.96039 1.95907 3.66803 1.95907 4.40578C1.95907 5.93218 3.20467 7.18498 4.73827 7.18498Z" fill="#15193C"/>
<path fill-rule="evenodd" clip-rule="evenodd" d="M9.39653 9.40042C6.54461 9.40042 4.13477 10.9527 4.13477 12.7902C4.13477 15.1662 8.09477 15.1662 9.39653 15.1662C11.6559 15.1662 14.6597 14.9214 14.6597 12.8053C14.6597 10.9592 12.2492 9.40042 9.39653 9.40042ZM9.39653 7.8373H9.42101C9.87942 7.83707 10.3332 7.74588 10.7562 7.56902C11.1791 7.39216 11.5627 7.13315 11.8848 6.80698C12.2089 6.48277 12.4653 6.09748 12.6393 5.67343C12.8133 5.24939 12.9015 4.79502 12.8986 4.33666C12.8977 3.40808 12.5284 2.51779 11.8719 1.86112C11.2153 1.20444 10.3251 0.835006 9.39653 0.833862C8.46813 0.835197 7.57818 1.20474 6.92191 1.86141C6.26564 2.51809 5.89665 3.40827 5.89589 4.33666C5.89703 5.26474 6.26621 6.15448 6.92246 6.81073C7.57871 7.46698 8.46845 7.83616 9.39653 7.8373Z" fill="#15193C"/>
</svg>
