<svg width="48" height="48" viewBox="0 0 48 48" fill="none" xmlns="http://www.w3.org/2000/svg">
<circle cx="24" cy="24" r="23.5" stroke="black"/>
<path opacity="0.4" d="M20.25 11.5C16.975 11.5 14.3125 14.1625 14.3125 17.4375C14.3125 20.65 16.825 23.25 20.1 23.3625C20.2 23.35 20.3 23.35 20.375 23.3625C20.4 23.3625 20.4125 23.3625 20.4375 23.3625C20.45 23.3625 20.45 23.3625 20.4625 23.3625C23.6625 23.25 26.175 20.65 26.1875 17.4375C26.1875 14.1625 23.525 11.5 20.25 11.5Z" fill="#15193C"/>
<path d="M26.6002 26.6874C23.1127 24.3624 17.4252 24.3624 13.9127 26.6874C12.3252 27.7499 11.4502 29.1874 11.4502 30.7249C11.4502 32.2624 12.3252 33.6874 13.9002 34.7374C15.6502 35.9124 17.9502 36.4999 20.2502 36.4999C22.5502 36.4999 24.8502 35.9124 26.6002 34.7374C28.1752 33.6749 29.0502 32.2499 29.0502 30.6999C29.0377 29.1624 28.1752 27.7374 26.6002 26.6874Z" fill="#15193C"/>
<path opacity="0.4" d="M33.9877 18.1751C34.1877 20.6001 32.4627 22.7251 30.0752 23.0126C30.0627 23.0126 30.0627 23.0126 30.0502 23.0126H30.0127C29.9377 23.0126 29.8627 23.0126 29.8002 23.0376C28.5877 23.1001 27.4752 22.7126 26.6377 22.0001C27.9252 20.8501 28.6627 19.1251 28.5127 17.2501C28.4252 16.2376 28.0752 15.3126 27.5502 14.5251C28.0252 14.2876 28.5752 14.1376 29.1377 14.0876C31.5877 13.8751 33.7752 15.7001 33.9877 18.1751Z" fill="#15193C"/>
<path d="M36.4883 29.7374C36.3883 30.9499 35.6133 31.9999 34.3133 32.7124C33.0633 33.3999 31.4883 33.7249 29.9258 33.6874C30.8258 32.8749 31.3508 31.8624 31.4508 30.7874C31.5758 29.2374 30.8383 27.7499 29.3633 26.5624C28.5258 25.8999 27.5508 25.3749 26.4883 24.9874C29.2508 24.1874 32.7258 24.7249 34.8633 26.4499C36.0133 27.3749 36.6008 28.5374 36.4883 29.7374Z" fill="#15193C"/>
</svg>
