<svg width="17" height="20" viewBox="0 0 17 20" fill="none" xmlns="http://www.w3.org/2000/svg">
<path d="M16.3636 8.18182C16.3636 14.5455 8.18182 20 8.18182 20C8.18182 20 0 14.5455 0 8.18182C3.23348e-08 6.01187 0.86201 3.93079 2.3964 2.3964C3.93079 0.86201 6.01187 0 8.18182 0C10.3518 0 12.4328 0.86201 13.9672 2.3964C15.5016 3.93079 16.3636 6.01187 16.3636 8.18182Z" fill="#808080"/>
<path d="M8.18175 12.7272C10.6921 12.7272 12.7272 10.6922 12.7272 8.18179C12.7272 5.67141 10.6921 3.63634 8.18175 3.63634C5.67136 3.63634 3.63629 5.67141 3.63629 8.18179C3.63629 10.6922 5.67136 12.7272 8.18175 12.7272Z" fill="white"/>
</svg>
