<svg width="41" height="41" viewBox="0 0 41 41" fill="none" xmlns="http://www.w3.org/2000/svg">
<path d="M22.6362 8.83084C21.9168 8.83084 21.2241 8.56948 20.6834 8.10206C19.1304 6.76065 17.1015 5.94474 14.8727 5.94474C9.99833 5.94474 6.04759 9.82653 6.04759 14.6141C6.04477 19.4017 9.99833 23.2794 14.8727 23.2794H26.6377C28.2625 23.2794 29.5803 24.5737 29.5803 26.1696C29.5803 27.7655 28.2625 29.0599 26.6377 29.0599H14.8727C6.75156 29.0585 0.166504 22.5907 0.166504 14.6127C0.166504 6.63342 6.75156 0.171141 14.8727 0.166992C18.5912 0.168375 21.9886 1.52638 24.5778 3.76253C26.6194 5.52572 25.3536 8.83084 22.6362 8.83084Z" fill="#FABE2C"/>
<path d="M18.446 32.087C19.1654 32.087 19.8581 32.3484 20.3988 32.8144C21.9518 34.1545 23.9793 34.9717 26.2095 34.9717C31.0965 34.9717 35.0557 31.0637 35.0318 26.2595C35.0093 21.4733 30.9853 17.633 26.1123 17.633H14.4431C12.8197 17.633 11.5019 16.34 11.5019 14.7441C11.5019 13.1483 12.8197 11.8552 14.4431 11.8552H26.2095C34.3292 11.8552 40.9171 18.3231 40.9171 26.301C40.9171 34.2803 34.3306 40.744 26.2095 40.7467C22.491 40.744 19.095 39.3873 16.5058 37.1512C14.4642 35.3908 15.73 32.087 18.446 32.087Z" fill="#FF9100"/>
</svg>
